<?xml version="1.0" encoding="UTF-8" standalone="no"?>
<svg xmlns:dc="http://purl.org/dc/elements/1.1/" xmlns:cc="http://web.resource.org/cc/" xmlns:rdf="http://www.w3.org/1999/02/22-rdf-syntax-ns#" xmlns:svg="http://www.w3.org/2000/svg" xmlns="http://www.w3.org/2000/svg" xmlns:sodipodi="http://sodipodi.sourceforge.net/DTD/sodipodi-0.dtd" xmlns:inkscape="http://www.inkscape.org/namespaces/inkscape" version="1.0" id="Layer_1" width="720" height="720" viewBox="0 0 250.668 250.668" overflow="visible" enable-background="new 0 0 250.668 250.668" xml:space="preserve" sodipodi:version="0.32" inkscape:version="0.45.1" sodipodi:docname="National_Security_Agency.svg" inkscape:output_extension="org.inkscape.output.svg.inkscape"><metadata id="metadata336"><rdf:RDF><cc:Work rdf:about=""><dc:format>image/svg+xml</dc:format><dc:type rdf:resource="http://purl.org/dc/dcmitype/StillImage"/></cc:Work></rdf:RDF></metadata><defs id="defs334"/><sodipodi:namedview inkscape:window-height="581" inkscape:window-width="697" inkscape:pageshadow="2" inkscape:pageopacity="0.0" guidetolerance="10.0" gridtolerance="10.0" objecttolerance="10.0" borderopacity="1.0" bordercolor="#666666" pagecolor="#ffffff" id="base" inkscape:showpageshadow="false" width="720px" height="720px" inkscape:zoom="4.2651852" inkscape:cx="273.27599" inkscape:cy="125.334" inkscape:window-x="58" inkscape:window-y="22" inkscape:current-layer="Layer_1"/>
<g id="g3">
	<path d="M 125.336,250.334 C 194.367,250.334 250.334,194.371 250.334,125.333 C 250.334,56.303 194.367,0.335 125.336,0.335 C 56.299,0.334 0.334,56.302 0.334,125.333 C 0.334,194.371 56.299,250.334 125.336,250.334 z " id="path5" style="fill:#e0af35;stroke:#000000;stroke-width:0.6688"/>
	<path d="M 125.336,246.582 C 192.335,246.582 246.657,192.269 246.657,125.261 C 246.657,58.255 192.335,3.935 125.336,3.935 C 58.331,3.935 4.014,58.255 4.014,125.261 C 4.014,192.27 58.331,246.582 125.336,246.582 z " id="path7" style="fill:#ffffff;stroke:#000000;stroke-width:0.1488"/>
	<path d="M 125.336,221.329 C 178.388,221.329 221.404,178.317 221.404,125.261 C 221.404,72.202 178.387,29.195 125.336,29.195 C 72.277,29.195 29.268,72.202 29.268,125.261 C 29.268,178.317 72.278,221.329 125.336,221.329 z " id="path9" style="fill:#e0af35;stroke:#000000;stroke-width:0.1488"/>
	<path d="M 125.336,218.959 C 177.082,218.959 219.035,177.009 219.035,125.261 C 219.035,73.512 177.082,31.561 125.336,31.561 C 73.592,31.561 31.635,73.512 31.635,125.261 C 31.636,177.009 73.592,218.959 125.336,218.959 z " id="path11" style="fill:#124471;stroke:#000000;stroke-width:0.29750001"/>
	<polyline points="131.981,138.484    123.026,138.403 131.981,137.541  " id="polyline13" style="fill:#ffffff;stroke:#000000;stroke-width:0.0738;stroke-linejoin:round"/>
	<path d="M 118.978,188.382 L 123.026,190.551 L 127.215,188.382 L 123.026,143.172 L 118.978,188.382 z M 123.026,142.16 L 137.418,186.087 L 140.614,187.355 L 142.452,184.848 L 123.026,142.16 z M 137.467,186.287 L 135.376,188.977 L 132.305,187.683 L 123.026,142.451 L 137.467,186.287 z M 132.3,187.792 L 130.087,189.534 L 127.183,188.415 L 123.026,143.026 L 132.3,187.792 z M 123.026,142.16 L 108.631,186.087 L 105.435,187.355 L 103.599,184.848 L 123.026,142.16 z M 108.578,186.287 L 110.672,188.977 L 113.749,187.683 L 123.026,142.451 L 108.578,186.287 z M 113.751,187.792 L 115.957,189.534 L 118.865,188.415 L 123.027,143.026 L 113.751,187.792 z " id="path15" style="fill:#ffffff;stroke:#ffffff;stroke-width:0.2225;stroke-linejoin:round"/>
	<polygon points="118.978,188.382 123.026,190.551 127.215,188.382 123.026,143.172 118.978,188.382 " id="polygon17" style="fill:#ffffff;stroke:#000000;stroke-width:0.0738;stroke-linejoin:round"/>
	<path d="M 123.026,188.67 L 123.026,143.281 M 131.839,138.012 L 123.026,138.404" id="path19" style="fill:none;stroke:#000000;stroke-width:0.0738;stroke-linejoin:round"/>
	<polyline points="131.766,139.412    123.026,138.623 131.621,138.487  " id="polyline21" style="fill:#ffffff;stroke:#000000;stroke-width:0.0738;stroke-linejoin:round"/>
	
		<line x1="131.547" y1="138.927" x2="123.026" y2="138.623" id="line23" style="fill:none;stroke:#000000;stroke-width:0.0738;stroke-linejoin:round"/>
	<polyline points="131.776,140.364    123.026,138.871 131.766,139.412  " id="polyline25" style="fill:#ffffff;stroke:#000000;stroke-width:0.0738;stroke-linejoin:round"/>
	
		<line x1="131.756" y1="139.877" x2="123.026" y2="138.871" id="line27" style="fill:none;stroke:#000000;stroke-width:0.0738;stroke-linejoin:round"/>
	<polyline points="131.61,141.307 123.026,139.127    131.766,140.342  " id="polyline29" style="fill:#ffffff;stroke:#000000;stroke-width:0.0738;stroke-linejoin:round"/>
	
		<line x1="131.875" y1="140.896" x2="123.026" y2="139.127" id="line31" style="fill:none;stroke:#000000;stroke-width:0.0738;stroke-linejoin:round"/>
	<polyline points="131.595,142.356    123.026,139.384 131.746,141.337  " id="polyline33" style="fill:#ffffff;stroke:#000000;stroke-width:0.0738;stroke-linejoin:round"/>
	
		<line x1="132.049" y1="142.02299" x2="123.026" y2="139.384" id="line35" style="fill:none;stroke:#000000;stroke-width:0.0738;stroke-linejoin:round"/>
	<polyline points="131.907,143.677    123.026,139.673 131.956,142.572  " id="polyline37" style="fill:#ffffff;stroke:#000000;stroke-width:0.0738;stroke-linejoin:round"/>
	
		<line x1="131.966" y1="143.052" x2="123.026" y2="139.673" id="line39" style="fill:none;stroke:#000000;stroke-width:0.0738;stroke-linejoin:round"/>
	<polyline points="132.355,145.388 123.026,139.92    131.902,143.684  " id="polyline41" style="fill:#ffffff;stroke:#000000;stroke-width:0.0738;stroke-linejoin:round"/>
	
		<line x1="132.41" y1="144.69" x2="123.026" y2="139.92" id="line43" style="fill:none;stroke:#000000;stroke-width:0.0738;stroke-linejoin:round"/>
	<polyline points="132.743,147.455    123.026,140.175 132.272,145.33  " id="polyline45" style="fill:#ffffff;stroke:#000000;stroke-width:0.0738;stroke-linejoin:round"/>
	
		<line x1="132.77499" y1="146.563" x2="123.026" y2="140.175" id="line47" style="fill:none;stroke:#000000;stroke-width:0.0738;stroke-linejoin:round"/>
	<polyline points="132.97,149.825 123.026,140.499    132.861,147.487  " id="polyline49" style="fill:#ffffff;stroke:#000000;stroke-width:0.0738;stroke-linejoin:round"/>
	
		<line x1="132.713" y1="148.439" x2="123.026" y2="140.49899" id="line51" style="fill:none;stroke:#000000;stroke-width:0.0738;stroke-linejoin:round"/>
	<polyline points="133.251,153.014    123.026,140.864 132.948,149.72  " id="polyline53" style="fill:#ffffff;stroke:#000000;stroke-width:0.0738;stroke-linejoin:round"/>
	
		<line x1="133.12" y1="151.347" x2="123.026" y2="140.864" id="line55" style="fill:none;stroke:#000000;stroke-width:0.0738;stroke-linejoin:round"/>
	<polyline points="133.543,157.482    123.026,141.223 133.322,153.018  " id="polyline57" style="fill:#ffffff;stroke:#000000;stroke-width:0.0738;stroke-linejoin:round"/>
	
		<line x1="132.843" y1="154.104" x2="123.026" y2="141.22301" id="line59" style="fill:none;stroke:#000000;stroke-width:0.0738;stroke-linejoin:round"/>
	<polyline points="135.055,168.648    123.026,141.761 133.598,157.493  " id="polyline61" style="fill:#ffffff;stroke:#000000;stroke-width:0.0738;stroke-linejoin:round"/>
	
		<line x1="133.957" y1="161.50101" x2="123.026" y2="141.761" id="line63" style="fill:none;stroke:#000000;stroke-width:0.0738;stroke-linejoin:round"/>
	<polygon points="123.026,142.16 137.417,186.087 140.614,187.354 142.452,184.848 123.026,142.16 " id="polygon65" style="fill:#ffffff;stroke:#000000;stroke-width:0.0738;stroke-linejoin:round"/>
	
		<line x1="123.026" y1="142.16" x2="140.16" y2="185.993" id="line67" style="fill:none;stroke:#000000;stroke-width:0.0738;stroke-linejoin:round"/>
	<polygon points="137.467,186.287 135.376,188.978 132.305,187.684 123.026,142.451 137.467,186.287 " id="polygon69" style="fill:#ffffff;stroke:#000000;stroke-width:0.0738;stroke-linejoin:round"/>
	
		<line x1="134.96201" y1="187.701" x2="123.026" y2="142.451" id="line71" style="fill:none;stroke:#000000;stroke-width:0.0738;stroke-linejoin:round"/>
	<polygon points="132.3,187.792 130.087,189.534 127.183,188.415 123.026,143.026 132.3,187.792 " id="polygon73" style="fill:#ffffff;stroke:#000000;stroke-width:0.0738;stroke-linejoin:round"/>
	
		<line x1="129.811" y1="188.604" x2="123.026" y2="143.026" id="line75" style="fill:none;stroke:#000000;stroke-width:0.0738;stroke-linejoin:round"/>
	<polyline points="114.071,138.484    123.026,138.403 114.071,137.541  " id="polyline77" style="fill:#ffffff;stroke:#000000;stroke-width:0.0738;stroke-linejoin:round"/>
	
		<line x1="114.212" y1="138.01199" x2="123.026" y2="138.403" id="line79" style="fill:none;stroke:#000000;stroke-width:0.0738;stroke-linejoin:round"/>
	<polyline points="114.284,139.412    123.026,138.623 114.43,138.487  " id="polyline81" style="fill:#ffffff;stroke:#000000;stroke-width:0.0738;stroke-linejoin:round"/>
	
		<line x1="114.503" y1="138.927" x2="123.026" y2="138.623" id="line83" style="fill:none;stroke:#000000;stroke-width:0.0738;stroke-linejoin:round"/>
	<polyline points="114.272,140.364    123.026,138.871 114.284,139.412  " id="polyline85" style="fill:#ffffff;stroke:#000000;stroke-width:0.0738;stroke-linejoin:round"/>
	
		<line x1="114.288" y1="139.877" x2="123.026" y2="138.871" id="line87" style="fill:none;stroke:#000000;stroke-width:0.0738;stroke-linejoin:round"/>
	<polyline points="114.434,141.307    123.026,139.127 114.284,140.342  " id="polyline89" style="fill:#ffffff;stroke:#000000;stroke-width:0.0738;stroke-linejoin:round"/>
	
		<line x1="114.171" y1="140.896" x2="123.026" y2="139.127" id="line91" style="fill:none;stroke:#000000;stroke-width:0.0738;stroke-linejoin:round"/>
	<polyline points="114.454,142.356    123.026,139.384 114.298,141.337  " id="polyline93" style="fill:#ffffff;stroke:#000000;stroke-width:0.0738;stroke-linejoin:round"/>
	
		<line x1="114" y1="142.02299" x2="123.026" y2="139.384" id="line95" style="fill:none;stroke:#000000;stroke-width:0.0738;stroke-linejoin:round"/>
	<polyline points="114.138,143.677    123.026,139.673 114.092,142.572  " id="polyline97" style="fill:#ffffff;stroke:#000000;stroke-width:0.0738;stroke-linejoin:round"/>
	
		<line x1="114.081" y1="143.052" x2="123.026" y2="139.673" id="line99" style="fill:none;stroke:#000000;stroke-width:0.0738;stroke-linejoin:round"/>
	<polyline points="113.691,145.388 123.026,139.92    114.146,143.684  " id="polyline101" style="fill:#ffffff;stroke:#000000;stroke-width:0.0738;stroke-linejoin:round"/>
	
		<line x1="113.639" y1="144.69" x2="123.026" y2="139.92" id="line103" style="fill:none;stroke:#000000;stroke-width:0.0738;stroke-linejoin:round"/>
	<polyline points="113.303,147.455    123.026,140.175 113.775,145.33  " id="polyline105" style="fill:#ffffff;stroke:#000000;stroke-width:0.0738;stroke-linejoin:round"/>
	
		<line x1="113.272" y1="146.563" x2="123.026" y2="140.175" id="line107" style="fill:none;stroke:#000000;stroke-width:0.0738;stroke-linejoin:round"/>
	<polyline points="113.07,149.825 123.026,140.499    113.187,147.487  " id="polyline109" style="fill:#ffffff;stroke:#000000;stroke-width:0.0738;stroke-linejoin:round"/>
	
		<line x1="113.336" y1="148.439" x2="123.026" y2="140.49899" id="line111" style="fill:none;stroke:#000000;stroke-width:0.0738;stroke-linejoin:round"/>
	<polyline points="112.795,153.014    123.026,140.864 113.101,149.72  " id="polyline113" style="fill:#ffffff;stroke:#000000;stroke-width:0.0738;stroke-linejoin:round"/>
	
		<line x1="112.927" y1="151.347" x2="123.026" y2="140.864" id="line115" style="fill:none;stroke:#000000;stroke-width:0.0738;stroke-linejoin:round"/>
	<polyline points="112.5,157.482 123.026,141.223    112.729,153.018  " id="polyline117" style="fill:#ffffff;stroke:#000000;stroke-width:0.0738;stroke-linejoin:round"/>
	
		<line x1="113.202" y1="154.104" x2="123.026" y2="141.22301" id="line119" style="fill:none;stroke:#000000;stroke-width:0.0738;stroke-linejoin:round"/>
	<polyline points="110.992,168.648    123.026,141.761 112.448,157.493  " id="polyline121" style="fill:#ffffff;stroke:#000000;stroke-width:0.0738;stroke-linejoin:round"/>
	
		<line x1="112.089" y1="161.50101" x2="123.026" y2="141.761" id="line123" style="fill:none;stroke:#000000;stroke-width:0.0738;stroke-linejoin:round"/>
	<polygon points="123.026,142.16 108.631,186.087 105.435,187.354 103.599,184.848 123.026,142.16 " id="polygon125" style="fill:#ffffff;stroke:#000000;stroke-width:0.0738;stroke-linejoin:round"/>
	
		<line x1="123.026" y1="142.16" x2="105.89" y2="185.993" id="line127" style="fill:none;stroke:#000000;stroke-width:0.0738;stroke-linejoin:round"/>
	<polygon points="108.578,186.287 110.672,188.978 113.749,187.684 123.026,142.451 108.578,186.287 " id="polygon129" style="fill:#ffffff;stroke:#000000;stroke-width:0.0738;stroke-linejoin:round"/>
	
		<line x1="111.084" y1="187.701" x2="123.026" y2="142.451" id="line131" style="fill:none;stroke:#000000;stroke-width:0.0738;stroke-linejoin:round"/>
	<polygon points="113.751,187.792 115.957,189.534 118.864,188.415 123.026,143.026 113.751,187.792 " id="polygon133" style="fill:#ffffff;stroke:#000000;stroke-width:0.0738;stroke-linejoin:round"/>
	
		<line x1="116.236" y1="188.604" x2="123.026" y2="143.026" id="line135" style="fill:none;stroke:#000000;stroke-width:0.0738;stroke-linejoin:round"/>
	<path d="M 193.729,180.15 C 193.729,180.15 191.562,179.861 190.298,178.558 C 189.388,177.621 187.982,174.369 187.982,174.369 C 186.039,170.006 183.319,165.893 178.634,165.893 C 173.955,165.893 168.597,171.3 166.655,175.672 C 166.655,175.672 166.32,176.32 165.925,176.609 C 165.529,176.898 164.769,176.829 164.769,176.829 L 68.496,176.829 C 66.614,176.829 65.076,178.296 64.963,180.15 L 64.963,180.145 C 65.075,182 66.614,183.473 68.496,183.473 L 164.769,183.473 C 164.769,183.473 165.529,183.398 165.925,183.685 C 166.321,183.974 166.655,184.623 166.655,184.623 C 168.596,188.995 173.955,194.406 178.634,194.406 C 183.319,194.406 186.038,190.298 187.982,185.927 C 187.982,185.927 189.388,182.673 190.298,181.736 C 191.562,180.439 193.729,180.15 193.729,180.15 z " id="path137" style="fill:#b2b2b2;stroke:#000000;stroke-width:0.0738"/>
	<path d="M 66.8,177.732 C 67.412,177.15 68.277,177.187 68.677,177.187 L 165.418,177.187 C 165.418,177.187 166.32,177.082 166.538,176.898 C 166.952,176.549 167.079,176.248 167.079,176.248 C 168.773,172.386 174.348,166.607 178.634,166.607 C 182.919,166.607 185.57,170.505 187.267,174.369 C 187.267,174.369 187.788,175.696 188.419,176.99 M 166.604,182.458 L 167.512,183.722 C 169.212,187.589 174.348,193.685 178.634,193.685 C 182.919,193.685 185.57,189.791 187.267,185.928 C 187.267,185.928 188.35,183.182 189.287,181.737 C 190.17,180.383 191.383,180.151 191.383,180.151 C 191.273,180.151 192.143,180.151 192.143,180.151 C 190.915,180.584 189.974,181.164 189.974,181.164" id="path139" style="fill:none;stroke:#000000;stroke-width:0.0738;stroke-linecap:round"/>
	<path d="M 190.335,180.15 C 190.335,180.15 189.396,180.504 189.037,181.379 C 187.876,184.119 185.931,184.622 184.845,185.927 C 183.761,187.226 183.114,188.521 182.03,189.537 C 180.846,190.638 178.634,190.403 178.634,190.403 C 178.634,190.403 180.66,189.464 181.311,189.104 C 181.956,188.742 182.966,187.514 183.04,186.715 C 183.113,185.926 183.04,184.556 183.04,184.556 C 183.04,184.556 186.576,184.262 187.231,183.397 C 187.876,182.531 188.529,180.149 188.529,180.149 L 190.335,180.149 M 168.597,180.15 L 167.222,180.15 C 167.222,180.15 169.031,177.331 169.965,176.248 C 170.909,175.165 172.135,173.429 172.642,172.711 C 173.144,171.987 173.869,170.542 173.869,170.542 L 174.878,171.698 L 173.794,175.814 L 170.33,176.898 L 168.597,180.15" id="path141"/>
	<path d="M 173.47,175.456 C 173.41,175.197 173.448,175.363 173.433,175.097 C 173.3,172.469 175.319,170.233 177.943,170.096 C 180.562,169.97 182.795,171.988 182.927,174.606 C 182.942,174.88 182.956,175.148 182.927,175.407 C 183.168,175.352 183.445,175.321 183.701,175.309 C 186.32,175.176 188.554,177.188 188.686,179.814 C 188.82,182.432 186.803,184.67 184.184,184.803 C 183.919,184.817 183.502,184.799 183.254,184.768 C 183.291,185.017 183.388,185.376 183.388,185.639 C 183.388,188.26 181.256,190.39 178.633,190.39 C 176.01,190.39 173.875,188.26 173.875,185.639 C 173.875,185.38 173.895,185.107 173.939,184.863 C 173.675,184.901 173.416,184.901 173.142,184.901 C 170.516,184.901 168.388,182.774 168.388,180.151 C 168.388,177.527 170.516,175.392 173.142,175.392 C 173.417,175.392 173.208,175.41 173.47,175.456 z " id="path143" style="fill:#b2b2b2;stroke:#000000;stroke-width:0.0738"/>
	<path d="M 182.007,183.528 C 182.638,183.881 183.367,184.07 184.14,184.026 C 186.334,183.916 188.028,182.045 187.912,179.855 C 187.802,177.655 185.935,175.966 183.74,176.08 C 182.969,176.116 182.248,176.387 181.663,176.794 C 182.021,176.163 182.194,175.435 182.154,174.649 C 182.043,172.452 180.172,170.764 177.981,170.878 C 175.787,170.987 174.097,172.857 174.207,175.051 C 174.235,175.534 174.347,175.995 174.52,176.414 C 174.092,176.254 173.626,176.169 173.143,176.169 C 170.946,176.169 169.164,177.948 169.164,180.149 C 169.164,182.342 170.945,184.126 173.143,184.126 C 173.93,184.126 174.65,183.923 175.259,183.523 C 174.884,184.132 174.653,184.871 174.653,185.637 C 174.653,187.836 176.433,189.615 178.633,189.615 C 180.826,189.615 182.612,187.837 182.612,185.637 C 182.614,184.864 182.391,184.141 182.007,183.528 z " id="path145" style="fill:#124471;stroke:#000000;stroke-width:0.0738"/>
	<path d="M 66.8,182.566 C 67.412,183.146 68.277,183.112 68.677,183.112 L 165.418,183.112 C 165.418,183.112 166.32,183.217 166.538,183.398 C 166.952,183.747 167.079,184.047 167.079,184.047" id="path147" style="fill:none;stroke:#000000;stroke-width:0.0738;stroke-linecap:round"/>
	<path d="M 167.909,184.558 C 167.909,184.558 167.118,182.861 166.321,182.533 C 165.529,182.206 163.938,182.315 163.938,182.315 L 67.704,182.315 C 67.09,182.315 65.752,181.521 65.752,180.473 C 65.752,180.473 66.546,181.667 67.704,181.737 L 163.938,181.737 C 163.938,181.737 165.925,181.591 166.502,182.026 C 167.08,182.458 167.909,184.558 167.909,184.558" id="path149"/>
	<path d="M 161.953,185.569 C 162.674,185.569 163.251,184.982 163.251,184.263 L 163.251,174.335 C 163.251,173.619 162.674,173.036 161.953,173.036 C 161.233,173.036 160.656,173.619 160.656,174.335 L 160.656,184.263 C 160.656,184.982 161.233,185.569 161.953,185.569 z " id="path151" style="fill:#b2b2b2;stroke:#000000;stroke-width:0.0738"/>
	<path d="M 160.656,183.868 C 160.656,184.582 161.233,185.171 161.953,185.171 C 162.674,185.171 163.251,184.582 163.251,183.868 M 160.656,174.953 C 160.656,174.23 161.233,173.647 161.953,173.647 C 162.674,173.647 163.251,174.23 163.251,174.953" id="path153" style="fill:none;stroke:#000000;stroke-width:0.0738"/>
	<path d="M 163.25,182.896 C 163.25,183.614 162.673,184.195 161.952,184.195 C 161.232,184.195 160.655,183.614 160.655,182.896 L 160.655,183.147 C 160.655,183.863 161.232,184.448 161.952,184.448 C 162.673,184.448 163.25,183.863 163.25,183.147 L 163.25,182.896 z " id="path155" style="stroke:#000000;stroke-width:0.0738"/>
	<path d="M 78.36,176.563 C 78.475,176.325 78.581,176.084 78.687,175.835" id="path157" style="fill:#94693c"/>
	<path d="M 65.362,172.526 C 67.559,173.212 69.872,171.657 71.717,170.327 L 72.007,170.729 C 71.199,173.906 71.428,177.549 70.215,180.551 L 71.716,180.727 L 71.889,180.15 C 72.973,179.52 74.265,178.698 75.364,177.699 C 75.364,177.699 78.899,176.2 78.652,176.163 L 79.922,173.389 C 83.214,170.96 84.947,167.496 86.682,164.204 C 90.091,155.596 92.052,146.175 92.514,136.465 C 92.514,136.465 93.441,136.067 93.614,136.355 C 93.848,136.444 96.104,136.14 96.544,135.346 L 98.352,135.776 L 100.723,135.658 C 102.357,135.242 103.035,134.192 103.348,132.908 L 104.736,132.771 L 107.829,130.083 C 107.028,129.089 106.559,128.44 105.706,127.197 C 105.706,127.197 100.926,121.071 99.51,109.372 C 98.729,102.908 100.326,91.603 100.326,91.603 L 102.4,91.603 C 99.915,90.449 96.967,89.032 95.292,86.545 C 94.078,80.133 99.336,74.473 96.68,68.232 C 91.996,60.607 81.714,60.086 74.207,62.857 C 61.55,70.312 60.97,85.218 58.718,98.218 L 56.642,127.747 C 56.12,134.97 57.043,142.248 56.35,149.352 C 58.082,148.779 59.815,147.735 61.029,146.174 C 62.071,151.029 61.492,156.52 61.029,161.425 C 63.456,161.373 65.48,159.576 66.749,157.675 L 67.037,157.961 C 66.864,162.815 66.232,167.437 65.074,171.829 L 65.362,172.526 z M 192.648,144.271 C 187.329,127.689 189.872,108.911 186.522,91.575 L 186.811,90.309 C 185.77,83.891 182.652,78.289 180.57,72.281 C 178.144,67.254 175.778,61.416 170.17,58.412 C 166.472,55.237 160.75,56.792 156.479,57.607 C 152.259,59.397 146.192,62.516 146.312,68.12 C 146.137,72.686 148.621,76.152 149.083,80.485 C 148.968,85.74 142.699,89.526 139.114,91.606 L 145.672,91.606 C 145.672,91.606 147.015,97.223 146.774,104.474 C 146.552,111.328 145.475,119.024 140.727,126.608 C 140.575,126.85 138.552,129.883 135.184,133.589 L 142.035,135.981 L 142.609,134.137 C 142.772,134.43 143.011,134.425 143.294,134.573 C 143.959,134.927 144.952,134.737 145.719,134.811 L 147.177,134.678 C 148.045,134.392 148.852,133.696 149.084,132.716 L 149.953,133.002 L 150.353,133.292 C 151.164,133.409 152.493,133.756 153.013,133.002 L 154.11,134.794 L 154.805,137.856 C 158.499,147.45 158.847,159.064 168.379,165.588 L 169.19,165.991 L 170.863,166.688 L 175.318,173.212 C 176.584,174.835 178.204,175.7 179.762,176.679 C 180.412,176.775 181.356,178.676 181.834,178.13 L 182.538,176.277 L 181.264,169.631 C 182.236,170.055 183.358,169.986 184.263,170.272 L 185.716,169.058 C 184.443,165.014 183.749,160.621 183.055,156.286 L 183.055,155.391 C 186.509,157.618 187.907,155.884 187.907,155.884 C 186.813,151.548 186.118,146.175 185.83,141.033 L 186.447,140.85 C 186.86,141.824 187.384,142.737 188.086,143.575 C 188.836,144.325 189.819,144.904 190.858,144.674 L 192.648,144.271 z " id="path159" style="fill:#94693c;stroke:#000000;stroke-width:0.0738"/>
	<path stroke-miterlimit="2" d="M 134.838,91.604 C 134.666,90.403 134.002,88.34 133.595,86.953 C 134.064,84.929 132.151,83.025 132.903,81.178 C 131.632,77.706 131.346,74.243 131.229,70.488 C 130.703,68.175 130.594,65.691 129.667,63.553 C 128.571,61.073 125.299,60.223 123.313,59.797 C 121.329,59.371 118.171,59.221 118.171,59.221 C 117.249,59.139 115.671,59.718 115.799,60.413 C 116.925,62.139 116.776,63.834 116.488,65.236 L 113.737,65.939 C 116.034,66.521 118.328,68.268 118.098,69.467 C 117.753,70.515 116.022,70.695 115.8,70.487 C 115.8,70.487 112.623,67.664 112.211,67.543 C 111.796,67.429 110.639,66.577 110.819,66.804 C 110.911,66.911 111.976,68.276 112.768,69.062 C 113.521,69.808 113.904,70.919 113.904,70.919 C 114.621,71.661 114.969,72.283 114.876,73.781 L 113.897,76.551 L 113.202,79.212 C 113.202,80.6 111.641,81.866 111.816,83.369 C 111.295,84.466 110.545,85.738 110.834,86.839 L 108.87,91.604 L 134.838,91.604 L 134.838,91.604 z " id="path161" style="fill:#ffffff;stroke:#000000;stroke-width:0.0738;stroke-linecap:square;stroke-miterlimit:2"/>
	<path stroke-miterlimit="2" d="M 115.8,60.413 C 116.883,62.139 116.817,63.801 116.489,65.236 L 113.738,65.939 C 116.035,66.521 118.329,68.268 118.099,69.467 C 117.754,70.515 116.023,70.695 115.801,70.487 C 115.801,70.487 112.624,67.664 112.212,67.543 C 111.797,67.429 110.64,66.577 110.82,66.804 C 110.912,66.911 111.977,68.276 112.769,69.062 C 113.522,69.808 113.905,70.919 113.905,70.919 C 109.157,68.31 107.386,67.976 107.386,67.976 L 106.716,68.771 C 106.452,66.001 105.727,63.399 107.295,61.111 C 108.869,59.431 112.964,60.013 115.8,60.413 z " id="path163" style="fill:#e0af35;stroke:#e0af35;stroke-width:0.0738;stroke-linecap:square;stroke-miterlimit:2"/>
	<path stroke-miterlimit="2" d="M 113.904,70.92 C 109.122,68.566 107.385,67.977 107.385,67.977 L 106.715,68.772 C 106.451,66.002 105.726,63.4 107.294,61.112 C 108.87,59.431 112.965,60.012 115.801,60.413" id="path165" style="fill:none;stroke:#000000;stroke-width:0.0738;stroke-linecap:square;stroke-miterlimit:2"/>
	<path d="M 114.01,76.725 C 114.992,75.458 115.767,74.236 116.266,72.28 C 116.034,72.102 116.034,71.872 115.8,71.702 C 115.37,71.887 115.339,73.317 115.169,74.07 L 114.01,76.725 M 111.897,67.536 C 111.897,67.536 114.564,69.482 115.826,70.682 C 116.893,70.949 118.061,70.455 118.371,69.332 C 118.35,68.743 117.519,67.679 116.407,66.934 C 115.968,66.742 115.43,66.375 114.93,66.18 C 115.878,67.004 117.899,67.991 117.459,69.756 C 116.574,70.599 116.101,70.278 115.597,69.831 L 111.897,67.536 M 113.282,67.323 L 116.532,68.811 C 116.549,68.804 117.21,68.818 116.532,68.594 C 113.934,67.44 111.735,64.433 108.675,65.705 C 107.633,66.287 107.179,67.849 106.716,68.772 L 107.359,67.998 C 107.359,67.998 108.136,66.678 108.633,66.515 C 110.75,65.823 112.012,66.656 112.012,66.656 L 113.282,67.323 M 115.58,65.102 C 115.463,65.286 115.821,65.706 115.648,65.786 C 115.14,66.032 113.737,65.946 113.065,65.786 C 113.457,65.675 114.827,64.578 115.58,65.102 M 109.38,61.031 C 107.747,62.176 107.602,63.439 106.962,65.229 C 106.788,63.092 107.459,60.769 109.38,61.031 M 113.047,70.249 C 110.672,68.424 110.35,68.385 107.736,67.387 C 107.736,67.387 107.897,67.157 108.03,66.965 C 110.748,68.027 111.81,69.042 111.81,69.042 L 113.047,70.249 M 116.489,64.117 L 116.678,64.654 C 117.87,63.353 117.284,61.883 115.8,60.413 L 116.329,61.855 C 116.819,63.485 116.393,63.694 116.489,64.117" id="path167"/>
	<path stroke-miterlimit="2" d="M 116.776,65.311 C 117.991,65.136 118.054,67.253 119.557,67.135 C 120.771,67.196 121.869,66.398 122.469,65.165 C 123.448,65.278 124.286,65.393 125.133,64.944 L 125.281,64.767 C 124.422,65.085 123.473,64.909 122.522,64.607 C 121.329,64.226 120.131,63.364 119.124,63.36 C 118.11,63.29 117.685,63.982 117.217,65.011 L 116.776,65.311 z " id="path169" style="stroke:#000000;stroke-width:0.0738;stroke-linecap:square;stroke-miterlimit:2"/>
	<path d="M 118.822,64.288 C 118.766,64.924 118.581,65.569 119.415,65.897 C 120.463,66.109 120.604,65.463 120.839,64.735 C 120.97,64.66 121.708,64.929 121.716,65.03 C 121.612,65.495 121.256,66.293 120.542,66.585 C 120.031,66.723 119.646,66.749 119.186,66.567 C 118.482,66.3 117.883,65.353 117.883,64.796 C 117.767,64.447 118.473,64.178 118.822,64.288" id="path171" style="fill:#ffffff"/>
	<path d="M 109.877,91.604 C 110.562,91.47 111.128,90.766 111.815,90.595 C 112.104,90.939 110.658,91.256 110.945,91.604 L 109.877,91.604 M 115.47,91.604 C 116.158,91.372 117.074,90.187 117.882,90.187 C 118.346,90.539 117.157,91.085 117.33,91.604 L 115.47,91.604 M 123.906,91.604 C 124.485,91.312 125.22,90.134 125.97,90.309 C 126.661,90.539 125.988,91.057 125.697,91.604 L 123.906,91.604 M 131.994,91.604 L 131.473,90.809 C 131.415,90.52 130.822,90.078 131.054,89.899 C 131.69,90.308 131.69,90.809 132.838,91.604 L 131.994,91.604 M 118.864,81.001 C 118.288,81.64 117.476,81.923 116.67,81.983 C 116.148,82.1 115.799,81.814 115.399,81.58 L 115.399,81.291 C 116.379,81.522 117.131,81.813 118.054,81.291 C 118.346,81.178 118.517,80.888 118.864,81.001 M 124.297,80.54 C 123.026,82.723 122.231,82.365 120.757,81.118 C 120.469,81.001 122.273,81.626 122.705,81.448 L 124.297,80.54 M 127.47,88.34 C 126.605,88.514 125.911,89.785 124.99,88.919 C 124.411,88.458 124.006,87.879 124.123,87.129 C 124.99,87.704 125.86,87.879 126.78,87.417 C 127.643,86.085 129.149,85.625 129.149,83.952 C 129.549,85.507 128.394,87.129 127.47,88.34 M 120.134,89.033 C 119.5,88.863 118.634,89.437 117.881,89.033 C 117.131,88.514 117.249,87.591 116.957,86.839 C 117.881,87.819 118.634,88.11 119.731,87.937 C 120.654,86.895 122.156,85.798 122.736,84.467 C 122.212,86.143 121.235,87.644 120.134,89.033 M 113.492,89.033 C 112.971,88.571 112.452,89.38 111.933,88.919 C 111.641,87.997 111.354,86.896 111.641,85.859 C 112.047,86.546 111.756,87.644 112.795,87.937 C 114.358,88.11 114.472,86.199 115.686,85.738 C 115.514,87.074 114.071,87.879 113.492,89.033 M 60.916,94.061 C 63.859,88.11 65.824,81.698 67.154,75.051 C 65.649,81.64 64.613,88.397 60.916,94.061" id="path173"/>
	<path d="M 98.76,104.465 C 98.238,103.942 98.526,102.903 99.048,102.377 L 98.76,104.465" id="path175" style="fill:#94693c"/>
	<path d="M 60.084,125.191 C 59.556,131.517 59.116,137.862 58.948,144.271 C 60.442,138.233 60.858,131.697 61.206,125.191 L 60.084,125.191 M 66.497,125.191 C 66.48,125.939 66.469,126.697 66.458,127.458 C 65.997,129.246 64.555,130.636 63.802,132.308 C 61.378,137.508 62.418,144.271 57.042,148.138 C 57.564,148.892 58.026,147.967 58.543,147.854 C 62.471,145.655 61.839,140.799 63.802,137.454 C 64.034,142.65 63.859,148.257 64.496,153.108 C 66.114,147.331 65.017,140.631 64.959,134.565 C 65.535,132.48 66.693,130.636 67.96,128.84 C 68.006,127.618 68.045,126.405 68.085,125.191 L 66.497,125.191 M 73.328,125.191 C 73.095,129.385 72.794,133.543 72.295,137.569 C 70.158,139.993 69.579,143.11 69.117,146.174 C 67.035,151.029 67.497,157.324 61.894,160.327 L 61.721,160.733 C 64.15,160.62 66.169,157.785 67.27,155.882 C 68.367,152.878 69.404,149.875 70.503,146.867 C 70.794,152.818 70.041,159.06 69.521,164.777 C 71.951,158.194 71.89,150.217 71.603,142.881 C 71.89,141.205 72.47,139.585 73.971,138.547 C 73.971,138.547 74.231,132.288 74.525,125.188 L 73.328,125.188 M 80.41,125.191 C 80.176,132.566 79.642,139.98 78.939,147.155 C 75.243,152.88 73.68,159.462 72.296,166.17 C 71.718,168.823 69.061,170.73 66.749,171.83 L 65.074,171.83 L 65.363,172.526 C 68.022,172.75 70.042,171.31 72.009,169.749 C 71.662,167.552 73.681,166.281 74.09,164.377 C 75.015,161.715 75.301,158.77 76.743,156.285 C 76.164,161.661 75.705,167.203 74.897,172.235 C 76.456,169.518 76.456,166.053 77.151,162.99 C 77.672,158.828 78.362,154.843 78.654,150.625 L 80.618,148.662 C 80.618,148.662 81.149,135.661 81.583,125.191 L 80.41,125.191 M 86.005,125.191 C 85.633,135.435 84.986,146.076 84.372,156.285 C 79.633,161.199 81.134,168.648 77.67,174.083 C 77.405,175.458 76.49,176.673 75.365,177.699 L 78.687,175.835 C 80.824,170.923 82.366,165.265 83.911,159.926 L 86.275,157.151 C 86.733,146.041 87.191,135.617 87.334,125.192 L 86.005,125.192 M 92.631,125.191 C 92.389,129.015 91.938,132.885 92.514,136.465 L 93.065,136.411 C 93.612,133.067 93.697,129.037 93.821,125.191 L 92.631,125.191 M 95.45,125.191 C 95.249,128.032 94.871,130.89 94.598,133.694 C 94.598,133.694 95.004,133.908 95.054,133.715 C 95.8,131.082 95.938,128.028 96.023,125.191 L 95.45,125.191 M 98.26,125.191 C 98.159,128.836 97.669,133.298 96.544,135.346 L 98.352,135.776 C 98.958,132.337 99.151,128.855 99.263,125.192 L 98.26,125.192 M 101.38,125.191 C 101.198,127.929 100.797,130.673 100.722,133.291 C 101.624,131.142 101.912,128.094 102.083,125.191 L 101.38,125.191 M 104.366,125.191 C 104.399,125.25 104.413,125.291 104.413,125.291 C 103.988,126.868 103.759,131.199 103.348,132.908 L 105.606,134.936 C 105.606,133.554 111.522,134.202 111.522,134.202 C 108.497,131.153 106.22,128.135 104.509,125.192 L 104.366,125.192 M 104.508,125.191 C 100.531,118.362 99.594,111.986 99.324,106.745 C 99.218,102.535 99.48,99.189 99.48,99.189 L 98.237,102.499 C 96.736,103.422 95.463,102.668 94.076,102.094 C 93.326,101.054 92.112,99.956 92.805,98.51 C 93.265,97.758 93.845,97.357 94.306,96.835 C 92.974,97.296 91.245,99.143 89.626,97.641 C 88.938,95.968 87.431,94.467 88.242,92.386 C 88.703,91.755 88.876,90.94 89.626,90.419 C 88.876,90.249 87.953,90.88 87.262,90.189 C 86.221,88.572 86.395,86.841 86.566,84.876 C 87.203,84.184 87.549,83.489 88.356,83.083 C 87.432,82.679 86.157,81.816 86.274,80.485 C 86.448,77.597 87.262,74.938 89.338,72.858 L 89.225,72.687 C 86.795,74.882 83.732,76.614 80.439,75.46 C 79.339,74.996 79.228,73.784 78.937,72.858 C 77.382,75.46 74.262,76.097 71.31,76.323 C 69.695,76.21 68.769,74.355 67.269,73.959 C 67.958,75.108 69.174,76.614 70.502,77.425 C 69.926,83.603 67.614,89.035 64.957,94.355 C 63.627,95.969 61.319,95.74 59.408,96.144 C 60.102,97.128 61.72,96.896 62.416,97.934 C 61.802,107.058 60.846,116.106 60.083,125.193 L 61.205,125.193 C 61.447,120.615 61.659,116.052 62.182,111.686 L 62.877,97.934 L 65.648,96.432 L 68.136,99.035 C 67.231,107.773 66.666,116.223 66.496,125.194 L 68.083,125.194 C 68.347,116.864 68.492,108.641 68.942,100.014 C 69.635,99.496 70.91,99.838 71.602,99.728 C 72.294,101.456 73.048,103.194 74.489,104.468 C 73.913,111.111 73.718,118.195 73.327,125.194 L 74.524,125.194 C 74.911,115.898 75.356,105.157 75.356,105.157 C 75.529,104.808 75.877,104.869 76.161,104.869 C 77.03,107.177 77.436,110.643 80.439,111.107 C 80.574,115.741 80.549,120.461 80.408,125.194 L 81.58,125.194 C 81.871,118.124 82.115,112.208 82.115,112.208 C 82.925,113.532 83.966,115.67 85.873,115.561 L 86.273,115.561 C 86.22,118.711 86.124,121.935 86.003,125.195 L 87.332,125.195 C 87.367,122.449 87.389,119.705 87.374,116.946 C 88.937,117.756 90.204,119.718 92.402,119.136 L 92.69,119.545 C 92.822,121.392 92.758,123.288 92.63,125.194 L 93.82,125.194 C 93.876,123.333 93.943,121.512 94.075,119.831 C 94.479,120.005 95.289,120.468 95.577,121.102 C 95.596,122.455 95.54,123.823 95.448,125.193 L 96.02,125.193 C 96.059,123.901 96.087,122.647 96.156,121.511 L 98.236,121.912 C 98.282,122.831 98.293,123.967 98.258,125.193 L 99.261,125.193 C 99.288,124.302 99.307,123.404 99.334,122.487 L 101.415,120.927 C 101.514,122.333 101.476,123.764 101.379,125.192 L 102.082,125.192 C 102.17,123.643 102.231,122.134 102.323,120.817 C 102.323,120.817 104.06,124.537 104.364,125.192 L 104.508,125.192" id="path177"/>
	<path d="M 98.352,173.389 C 97.546,173.212 96.793,173.099 95.984,172.924 C 99.161,160.847 99.683,147.504 103.091,135.657 C 104.303,134.619 103.958,132.34 108.983,131.732 C 109.304,132.479 105.834,132.339 105.173,134.103 C 108.579,131.904 110.484,132.714 112.508,134.274 C 118.69,138.952 114.703,147.907 114.876,154.381 L 114.416,155.358 L 114.011,168.94 C 113.262,170.327 113.724,172.235 113.607,173.906 C 112.105,173.445 110.315,171.657 108.465,172.924 L 107.944,172.924 L 98.352,173.389 z M 105.005,125.983 L 103.958,133.133 C 103.958,133.133 106.27,131.758 106.92,131.542 C 107.569,131.33 108.904,131.366 108.904,131.366 C 108.904,131.366 107.388,129.521 106.849,128.802 C 106.306,128.079 105.005,125.983 105.005,125.983 z " id="path179" style="fill:#94693c;stroke:#000000;stroke-width:0.0738"/>
	<path d="M 84.202,167.664 C 83.271,168.768 82.696,170.096 81.424,170.842 C 82.117,168.363 84.429,165.932 85.468,163.221 C 89.165,154.898 90.783,145.655 91.537,136.067 C 91.995,147.448 89.339,158.248 84.202,167.664 M 94.307,82.677 C 93.906,84.874 94.307,87.073 95.579,88.802 C 91.995,85.739 93.614,81.178 94.193,77.244 C 94.886,74.474 96.792,71.47 95.464,68.52 C 98.468,73.086 94.368,77.826 94.307,82.677" id="path181"/>
	<path d="M 80.441,77.536 C 79.23,84.585 75.703,90.653 71.428,96.43 C 70.62,97.179 69.292,97.236 68.251,96.835 C 67.498,96.484 66.808,95.682 66.345,95.042 C 68.426,89.556 70.567,84.063 71.428,78.12 C 74.147,78.404 76.28,76.614 78.36,75.168 C 78.769,76.095 79.75,76.782 80.441,77.536 M 86.449,83.661 C 85.413,85.625 84.429,87.88 85.064,90.188 C 82.29,94.235 80.21,98.972 76.052,102.094 C 74.603,102.782 73.452,101.34 72.991,100.3 C 71.138,96.43 75.991,94.001 76.858,90.595 C 78.878,86.491 80.616,82.33 81.6,77.826 C 83.506,77.997 85.064,77.188 86.449,76.03 C 85.813,78.289 83.911,81.753 86.449,83.661" id="path183" style="fill:#94693c"/>
	<path d="M 74.895,85.453 C 74.317,84.985 74.895,84.121 75.069,83.488 C 75.878,81.867 76.341,80.077 76.741,78.229 L 76.858,78.636 L 74.895,85.453 M 77.438,97.818 C 76.398,98.569 75.763,100.182 74.206,99.607 C 73.915,98.45 75.475,98.682 76.053,98.048 C 79.23,93.251 81.713,88.11 83.912,82.795 C 82.173,87.997 79.805,92.907 77.438,97.818 M 88.243,87.534 L 90.438,86.143 C 90.206,87.183 89.109,87.356 88.243,87.534 M 72.701,91.575 C 71.66,92.79 71.486,95.041 69.637,95.738 C 71.66,93.077 72.874,89.555 74.089,86.261 C 74.49,88.34 72.874,89.438 72.701,91.575" id="path185"/>
	<path d="M 87.55,97.64 C 88.011,98.509 89.744,98.509 89.227,99.725 C 86.911,103.016 85.239,106.942 81.83,109.43 C 80.093,110.124 78.822,108.157 77.843,107.063 C 77.322,106.134 77.093,105.154 76.976,104.054 C 81.077,100.53 82.87,95.794 85.586,91.575 C 88.125,92.615 85.875,95.85 87.55,97.64" id="path187" style="fill:#94693c"/>
	<path d="M 91.019,95.56 L 93.21,92.676 C 92.691,93.826 92.169,94.814 91.019,95.56 M 96.679,100.125 L 97.546,98.218 L 97.369,99.432 L 96.679,100.125" id="path189"/>
	<path d="M 93.906,103.477 L 94.307,103.477 L 94.307,104.173 L 88.068,113.878 C 87.489,114.452 86.509,114.573 85.759,114.282 C 84.546,113.419 82.98,112.262 82.98,110.7 C 86.682,107.987 87.897,103.711 90.149,100.125 C 90.841,101.514 91.882,103.651 93.906,103.477" id="path191" style="fill:#94693c"/>
	<path d="M 80.441,107.349 L 79.23,107.349 C 78.939,106.482 80.328,106.829 80.734,106.252 C 82.348,104.515 83.563,102.612 84.775,100.709 C 83.733,103.074 82.234,105.789 80.441,107.349" id="path193"/>
	<path d="M 97.369,104.749 C 97.024,106.712 99.856,107.526 98.931,109.603 C 96.849,112.084 96.098,115.38 93.789,117.921 C 92.169,119.194 90.784,117.343 89.454,116.651 C 89.11,116.19 88.877,115.667 88.765,115.154 C 91.825,112.029 93.327,108.333 95.174,104.749 C 95.809,105.328 96.621,104.749 97.369,104.749" id="path195" style="fill:#94693c"/>
	<path d="M 86.854,112.376 C 86.336,112.725 85.875,113.128 85.181,113.068 C 87.315,111.391 88.877,108.619 90.323,106.251 L 86.854,112.376" id="path197"/>
	<path d="M 100.598,115.281 C 100.414,116.228 99.466,117.343 98.468,117.921 C 98.007,117.804 97.603,117.979 97.258,118.328 C 97.141,118.558 97.369,118.732 97.546,118.846 C 98.469,118.846 99.279,118.445 100.032,117.921 C 100.262,117.518 100.706,117.023 100.941,116.624 C 101.028,117.343 101.395,118.111 101.629,118.942 C 101.502,119.133 100.643,119.588 100.318,119.715 C 98.643,121.043 96.737,119.715 95.291,118.846 L 94.886,118.445 L 99.588,109.784 C 99.667,111.481 100.201,113.562 100.598,115.281" id="path199" style="fill:#94693c"/>
	<path d="M 90.438,116.246 C 92.923,115.267 93.846,112.489 95.174,110.408 C 93.906,112.489 93.729,116.363 90.438,116.246 M 83.676,72.856 C 84.202,71.872 84.312,70.719 85.296,69.909 C 85.525,71.066 84.546,71.989 83.676,72.856 M 88.356,78.402 C 88.299,77.365 89.453,77.075 90.031,76.03 C 89.974,76.725 88.821,77.649 88.356,78.402 M 146.772,104.514 C 146.625,107.473 147.215,121.292 135.162,133.543 L 142.033,135.98 L 142.607,134.136 C 142.77,134.429 143.009,134.424 143.292,134.572 C 143.957,134.926 143.793,134.81 144.563,134.879 L 147.175,134.678 C 148.043,134.392 148.85,133.696 149.082,132.716 L 149.951,133.002 L 150.351,133.292 C 151.162,133.409 152.491,133.756 153.011,133.002 L 154.108,134.794 L 154.803,137.856 C 158.497,147.45 158.845,159.064 168.377,165.588 L 169.188,165.991 L 170.861,166.688 L 175.316,173.212 C 176.582,174.835 178.202,175.7 179.76,176.679 C 180.41,176.775 181.354,178.676 181.832,178.13 L 182.536,176.277 L 181.262,169.631 C 182.234,170.055 183.356,169.986 184.261,170.272 L 185.714,169.058 L 185.019,169.233 C 183.575,168.533 181.726,168.304 180.456,166.977 C 174.79,160.847 175.831,151.956 170.057,145.889 C 167.86,133.982 167.11,121.445 165.315,109.314 C 167.165,107.583 166.533,104.173 169.477,103.477 C 171.385,113.939 171.385,125.201 172.653,135.948 C 173.809,136.411 174.966,137.159 175.715,138.261 C 176.351,146.987 177.394,155.533 180.745,163.104 C 180.34,160.157 179.3,157.151 178.893,154.091 L 177.795,143.4 C 179.239,147.854 180.002,153.362 183.053,155.391 C 186.36,157.589 187.905,155.884 187.905,155.884 C 187.388,155.188 186.926,155.65 186.291,155.359 C 176.813,151.84 181.606,139.647 174.328,133.982 L 171.729,105.96 L 171.151,101.977 C 172.192,100.07 172.536,97.875 172.942,95.738 L 175.889,94.87 L 176.123,96.66 L 177.677,126.759 L 179.068,127.747 C 179.935,134.735 179.935,142.248 182.652,148.428 C 180.92,142.595 180.861,135.544 180.57,129.13 C 184.559,132.08 183.575,137.28 185.828,141.033 L 186.445,140.85 C 184.279,135.689 185.358,129.135 179.474,125.781 C 178.779,114.975 178.083,104.173 177.393,93.365 C 177.738,92.732 177.857,91.98 178.374,91.402 C 179.122,93.194 181.38,93.54 183.053,93.483 C 184.845,108.044 184.902,123.297 188.372,137.16 C 186.466,122.721 185.365,107.584 183.92,92.79 C 184.785,92.442 185.714,91.864 186.29,91 C 186.061,90.478 186.692,90.187 186.29,89.728 C 184.845,91 182.998,92.095 181.148,91.402 L 179.589,89.728 C 176.526,84.239 174.04,78.459 171.555,72.686 C 172.305,72.97 173.75,72.857 174.618,72.281 C 175.659,71.351 176.581,70.196 177.104,68.929 C 175.542,70.196 173.002,71.35 170.86,70.488 L 170.573,70.196 C 167.916,72.224 164.28,74.071 160.749,72.686 C 160.116,74.354 159.593,76.553 157.575,77.132 L 156.016,77.245 C 156.418,78.229 157.458,79.269 157.984,80.309 C 158.328,81.984 158.614,84.353 157.688,85.86 C 157.114,87.474 153.99,86.547 155.206,88.92 C 155.381,90.596 155.552,92.556 154.515,93.892 C 153.011,95.504 151.102,96.895 149.255,96.661 C 148.966,98.22 146.783,101.111 146.783,101.111 C 146.783,101.111 146.859,102.941 146.772,104.514 M 149.773,82.677 C 151.739,76.442 144.75,71.179 148.388,64.944 C 146.366,71.239 153.474,76.442 149.773,82.677 M 164.218,68.694 L 164.101,68.811 C 163.64,68.52 163.179,67.769 163.408,67.305 C 163.7,67.601 164.218,68.062 164.218,68.694" id="path201"/>
	<path d="M 170.057,71.989 C 172.653,77.595 174.79,83.429 177.677,88.919 C 177.795,90.248 177.047,91.285 176.295,92.272 C 175.37,92.907 174.214,93.31 173.118,92.96 C 168.555,87.475 165.259,81.582 162.256,75.459 C 165.315,75.799 167.86,74.07 170.057,71.989 z " id="path203" style="fill:#94693c;stroke:#000000;stroke-width:0.0738"/>
	<path d="M 158.094,75.051 C 157.115,75.051 155.842,74.184 154.803,73.548 L 155.084,72.97 C 156.419,72.795 157.404,74.243 158.094,75.051 M 182.828,86.839 C 180.92,82.386 178.952,77.766 177.678,73.259 C 179.704,77.649 181.031,82.33 182.828,86.839 M 175.025,91 C 173.403,90.539 172.768,88.397 171.846,86.953 C 169.994,83.37 167.682,79.963 166.878,75.86 C 168.667,81.292 172.653,85.798 175.025,91" id="path205"/>
	<path d="M 171.556,94.061 C 172.02,96.142 171.44,98.109 170.455,99.726 C 169.589,100.82 168.437,101.632 167.109,101.285 C 163.873,97.296 160.749,93.253 158.671,88.803 C 158.381,87.705 159.362,86.783 159.481,85.74 C 159.826,83.545 159.077,81.755 158.556,79.906 C 159.656,78.865 160.46,77.481 160.869,76.032 C 164.506,81.867 166.704,88.571 171.556,94.061 z " id="path207" style="fill:#94693c;stroke:#000000;stroke-width:0.0738"/>
	<path d="M 156.188,83.082 C 156.533,83.544 156.769,84.062 156.883,84.645 C 155.669,83.778 154.222,82.968 153.413,81.697 C 154.572,81.523 155.324,82.447 156.188,83.082 M 169.362,99.032 C 168.841,99.835 168.032,98.681 167.682,98.218 C 164.798,93.194 161.619,88.34 159.947,82.795 C 163.121,88.223 165.665,93.891 169.362,99.032 M 152.028,92.79 C 150.351,91.633 149.256,89.957 148.56,88.224 C 150.583,88.741 151.625,91 152.028,92.79" id="path209"/>
	<path d="M 157.404,89.324 C 159.768,94.174 162.604,98.799 166.299,103.074 C 166.767,104.926 165.606,106.135 164.624,107.349 C 163.641,108.157 162.425,108.506 161.041,108.333 C 158.149,105.211 156.36,101.632 154.223,98.219 C 156.361,95.795 156.42,92.443 156.884,89.325 L 157.404,89.325" id="path211" style="fill:#94693c"/>
	<path d="M 162.424,104.173 C 163.006,104.865 164.567,104.343 164.332,105.672 C 163.524,106.134 162.835,105.497 162.14,105.267 C 160.232,102.266 158.211,99.263 156.883,95.967 C 158.557,98.799 160.461,101.339 162.424,104.173" id="path213"/>
	<path d="M 152.72,98.335 C 154.456,102.319 156.825,106.08 159.768,109.603 C 159.947,111.275 158.615,112.606 157.282,113.477 C 155.959,113.939 154.457,113.128 154.108,111.801 C 152.895,107.405 147.002,103.822 150.234,98.741 C 151.043,98.628 151.857,98.509 152.72,98.335" id="path215" style="fill:#94693c"/>
	<path d="M 155.788,110.007 C 156.249,110.93 158.149,110.813 157.404,112.204 C 156.249,112.375 155.264,111.508 154.803,110.529 L 151.334,101.686 L 155.788,110.007" id="path217"/>
	<path d="M 153.531,113.991 C 152.72,115.959 150.583,116.537 148.678,116.764 C 147.551,116.686 145.67,116.257 145.406,115.628 C 145.773,113.991 146.35,111.248 146.552,109.024 C 148.054,110.931 147.983,114.976 151.043,115.154 C 151.507,114.975 151.276,114.513 151.334,114.166 C 148.849,113.069 147.97,109.657 146.638,107.462 C 146.819,106.347 146.784,105.253 146.864,104.106 C 147.105,103.862 147.613,103.59 148.16,103.477 L 153.531,113.991" id="path219" style="fill:#94693c"/>
	<path d="M 152.545,117.921 C 153.761,117 153.936,113.818 156.017,115.842 L 157.689,115.557 L 158.266,117.057 C 159.307,129.246 161.62,141.092 163.64,152.706 C 167.282,155.939 167.972,160.563 169.882,164.603 C 164.567,161.199 161.619,155.245 159.656,149.646 C 157.804,145.191 156.768,140.458 155.084,135.948 C 155.084,135.948 152.952,123.7 152.545,117.921 z " id="path221" style="fill:#94693c;stroke:#000000;stroke-width:0.0738"/>
	<path d="M 148.388,118.619 C 148.794,122.603 149.716,126.361 150.757,130.113 C 151.161,128.38 150.122,126.878 150.061,125.084 C 149.832,123.063 149.598,120.983 149.082,119.02 C 149.545,118.672 150.061,118.559 150.642,118.62 C 151.397,123.471 152.38,128.264 153.532,133.002 C 153.071,131.964 151.797,132.772 151.045,132.309 C 145.849,129.649 148.505,123.008 146.599,118.62 L 146.771,117.922 L 148.388,118.619" id="path223" style="fill:#94693c"/>
	<path d="M 181.233,175.527 L 180.167,168.94 C 176.871,165.302 175.371,160.846 173.927,156.462 C 173.466,160.327 174.679,164.027 175.199,167.551 L 175.025,167.551 C 172.833,162.64 172.536,156.981 171.962,151.43 C 171.035,149.876 170.111,147.853 168.261,147.04 C 167.11,134.676 164.909,122.775 163.815,110.407 L 160.87,110.407 L 159.657,114.281 C 161.1,126.82 162.604,139.297 165.315,151.315 C 170.806,158.247 169.825,168.131 177.795,173.792 L 181.233,175.527 z " id="path225" style="fill:#94693c;stroke:#000000;stroke-width:0.0738"/>
	<path d="M 143.042,132.474 C 143.206,132.768 143.442,132.973 143.722,133.127 C 144.39,133.481 145.307,133.51 146.076,133.578 C 147.001,133.408 147.809,132.365 147.982,131.616 C 145.787,127.859 146.322,121.969 145.573,117.577 C 145.378,117.639 145.096,117.159 144.902,117.382 C 144.581,118.328 144.009,119.577 143.965,120.164 C 144.486,123.225 145.497,126.646 144.919,129.938 C 143.994,127.107 144.787,123.657 143.634,120.997 C 142.85,122.77 142.45,123.562 141.668,125.024 L 142.842,131.905 C 142.88,132.125 142.95,132.312 143.042,132.474 M 140.762,126.54 L 141.746,131.359 C 141.746,131.359 141.075,130.244 139.995,130.102 C 138.912,129.955 138.226,129.991 138.226,129.991 L 140.762,126.54" id="path227" style="fill:#94693c"/>
	<path d="M 139.951,172.697 C 138.279,173.445 136.488,173.906 134.691,174.481 L 134.294,166.453 L 133.828,165.99 L 132.903,155.606 L 132.903,155.187 L 132.442,154.669 C 133.595,147.564 128.859,140.167 133.309,133.981 C 134.925,132.888 136.831,132.017 138.969,132.601 C 140.182,133 141.166,133.981 142.151,134.792 C 142.091,134.215 141.573,133.461 141.048,132.888 C 139.95,131.439 138.102,131.386 136.605,131.096 C 137.758,130.635 138.913,130.635 140.067,131.096 C 141.684,131.79 142.9,133.408 143.825,134.792 C 145.091,139.01 145.27,143.574 146.311,147.853 C 147.81,156.231 150.005,164.318 151.624,172.697 C 150.233,172.526 149.081,172.984 147.695,172.809 L 139.951,172.697 z " id="path229" style="fill:#94693c;stroke:#000000;stroke-width:0.0738"/>
	<path d="M 147.696,172.81 C 139.667,167.438 141.283,157.787 138.568,150.047 C 138.163,147.967 137.758,145.828 137.181,143.81 C 137.527,150.451 139.606,156.694 140.762,163.104 C 141.801,164.72 141.63,166.916 142.033,168.769 C 141.512,170.156 141.107,171.539 139.951,172.698 L 147.696,172.81 z M 107.943,172.924 L 105.577,166.977 C 105.978,164.319 106.441,161.542 106.27,158.829 C 105.208,163.811 103.514,169.874 98.352,173.39 L 107.943,172.924 z " id="path231" style="stroke:#000000;stroke-width:0.0738"/>
	<path d="M 113.896,139.127 L 113.896,139.245 C 112.507,138.835 110.658,138.55 109.443,137.335 C 107.771,138.261 105.576,138.374 103.61,138.261 L 103.61,138.031 C 105.631,137.281 107.654,136.7 109.443,135.486 C 110.718,136.934 112.74,138.085 113.896,139.127 M 108.756,144.674 L 109.561,144.788 C 111.068,147.791 112.971,150.625 114.011,153.804 C 110.777,151.84 110.546,147.736 108.757,144.961 L 106.385,158.539 C 106.963,151.491 108.522,144.904 109.331,138.03 C 109.561,140.396 108.927,142.419 108.756,144.674" id="path233"/>
	<path stroke-miterlimit="2" d="M 139.838,138.952 C 142.552,145.191 144.345,152.065 147.001,157.962 C 143.879,151.894 141.396,145.367 139.549,138.952 L 139.838,138.952 z " id="path235" style="stroke:#000000;stroke-width:0.0738;stroke-linecap:square;stroke-miterlimit:2"/>
	<path d="M 108.06,141.497 C 105.577,148.084 105.115,155.533 99.856,161.025 L 99.622,160.734 L 105.173,149.122 L 108.061,139.933 L 108.061,141.497 M 108.638,156.17 C 110.023,160.215 111.698,164.088 113.201,168.069 C 110.37,164.779 108.464,160.563 108.349,156.17 L 108.638,156.17 M 137.583,159.638 C 136.948,161.256 136.487,162.928 135.097,164.204 L 137.869,156.751 C 138.394,157.325 138.102,158.828 137.583,159.638" id="path237"/>
	<path d="M 146.772,104.514 C 146.772,104.514 147.312,118.881 138.653,129.498 C 129.157,141.141 123.026,143.29 123.026,143.29 C 123.026,143.29 116.894,141.141 107.396,129.498 C 98.756,118.905 99.271,104.514 99.271,104.514 L 146.772,104.514 L 146.772,104.514 z " id="path239" style="fill:#ffffff;stroke:#000000;stroke-width:0.0738"/>
	<path d="M 121.182,142.367 L 121.182,104.472 L 117.141,104.472 L 117.141,139.504 C 117.142,139.504 118.954,140.949 121.182,142.367 z M 105.706,127.197 L 105.706,104.472 L 101.971,104.472 L 101.971,119.69 C 101.97,119.69 103.755,124.59 105.706,127.197 z M 113.179,135.931 L 113.179,104.473 L 109.437,104.473 L 109.437,131.921 C 109.437,131.92 111.036,133.751 113.179,135.931 z M 124.866,142.367 L 124.866,104.472 L 128.908,104.472 L 128.908,139.504 C 128.908,139.504 127.095,140.949 124.866,142.367 z M 140.338,127.197 L 140.338,104.472 L 144.076,104.472 L 144.076,119.69 C 144.077,119.69 142.292,124.59 140.338,127.197 z M 132.868,135.931 L 132.868,104.473 L 136.607,104.473 L 136.607,131.921 C 136.607,131.92 135.013,133.751 132.868,135.931 z " id="path241" style="fill:#b11e39;stroke:#000000;stroke-width:0.0738"/>
	<path d="M 145.698,91.604 C 145.698,91.604 147.145,98.108 146.804,104.472 C 146.809,104.436 99.242,104.436 99.242,104.472 C 99.271,98.017 100.343,91.604 100.343,91.604 L 145.698,91.604 z " id="path243" style="fill:#76bae4;stroke:#000000;stroke-width:0.0738"/>
	<polygon points="20.557,151.917 23.984,156.772 22.979,159.726 20.557,151.917 " id="polygon245" style="stroke:#000000;stroke-width:0.0738;stroke-linejoin:round"/>
	<polygon points="20.554,151.917 20.482,157.859 22.979,159.726 20.554,151.917 " id="polygon247" style="fill:#ffffff;stroke:#000000;stroke-width:0.0738;stroke-linejoin:round"/>
	<polygon points="14.806,159.615 20.482,157.859 22.979,159.726 14.806,159.615 " id="polygon249" style="stroke:#000000;stroke-width:0.0738;stroke-linejoin:round"/>
	<polygon points="14.806,159.617 20.433,161.528 22.979,159.726 14.806,159.617 " id="polygon251" style="fill:#ffffff;stroke:#000000;stroke-width:0.0738;stroke-linejoin:round"/>
	<polygon points="20.352,167.468 20.433,161.528 22.979,159.726 20.352,167.468 " id="polygon253" style="stroke:#000000;stroke-width:0.0738;stroke-linejoin:round"/>
	<polygon points="20.352,167.468 23.909,162.712 22.979,159.726 20.352,167.468 " id="polygon255" style="fill:#ffffff;stroke:#000000;stroke-width:0.0738;stroke-linejoin:round"/>
	<polygon points="29.529,164.618 23.909,162.712 22.979,159.726 29.529,164.618 " id="polygon257" style="stroke:#000000;stroke-width:0.0738;stroke-linejoin:round"/>
	<polygon points="29.529,164.618 26.104,159.769 22.979,159.726 29.529,164.618 " id="polygon259" style="fill:#ffffff;stroke:#000000;stroke-width:0.0738;stroke-linejoin:round"/>
	<polygon points="29.661,155.011 26.104,159.769 22.979,159.726 29.661,155.011 " id="polygon261" style="stroke:#000000;stroke-width:0.0738;stroke-linejoin:round"/>
	<polygon points="29.661,155.011 23.984,156.772 22.979,159.726 29.661,155.011 " id="polygon263" style="fill:#ffffff;stroke:#000000;stroke-width:0.0738;stroke-linejoin:round"/>
	<polygon points="231.141,148.966 231.436,154.897 229,156.853 231.141,148.966 " id="polygon265" style="stroke:#000000;stroke-width:0.0738;stroke-linejoin:round"/>
	<polygon points="231.141,148.966 227.891,153.935 229,156.853 231.141,148.966 " id="polygon267" style="fill:#ffffff;stroke:#000000;stroke-width:0.0738;stroke-linejoin:round"/>
	<polygon points="222.165,152.374 227.896,153.935 229,156.853 222.165,152.374 " id="polygon269" style="stroke:#000000;stroke-width:0.0738;stroke-linejoin:round"/>
	<polygon points="222.165,152.374 225.882,157.008 229,156.853 222.165,152.374 " id="polygon271" style="fill:#ffffff;stroke:#000000;stroke-width:0.0738;stroke-linejoin:round"/>
	<polygon points="222.624,161.974 225.882,157.008 229,156.853 222.624,161.974 " id="polygon273" style="stroke:#000000;stroke-width:0.0738;stroke-linejoin:round"/>
	<polygon points="222.624,161.974 228.179,159.867 229,156.853 222.624,161.974 " id="polygon275" style="fill:#ffffff;stroke:#000000;stroke-width:0.0738;stroke-linejoin:round"/>
	<polygon points="231.896,164.497 228.179,159.867 229,156.853 231.896,164.497 " id="polygon277" style="stroke:#000000;stroke-width:0.0738;stroke-linejoin:round"/>
	<polygon points="231.896,164.497 231.611,158.565 229,156.853 231.896,164.497 " id="polygon279" style="fill:#ffffff;stroke:#000000;stroke-width:0.0738;stroke-linejoin:round"/>
	<polygon points="237.164,156.463 231.611,158.565 229,156.853 237.164,156.463 " id="polygon281" style="stroke:#000000;stroke-width:0.0738;stroke-linejoin:round"/>
	<polygon points="237.164,156.463 231.436,154.897 229,156.853 237.164,156.463 " id="polygon283" style="fill:#ffffff;stroke:#000000;stroke-width:0.0738;stroke-linejoin:round"/>
	<path d="M 132.903,155.606 L 132.903,155.595 C 135.275,153.397 136.774,150.567 136.891,147.564 L 136.774,147.448 C 135.907,150.219 134.003,152.53 132.903,155.187 L 132.903,155.606 z " id="path285" style="stroke:#000000;stroke-width:0.0738"/>
	<path d="M 136.891,142.595 L 136.774,142.595 L 136.605,140.397 L 136.774,140.338 L 136.891,142.189 L 136.891,142.595 M 141.223,137.335 C 139.606,137.684 137.988,137.28 136.605,136.642 C 135.275,137.508 133.828,138.261 132.212,138.434 C 133.134,137.219 135.097,136.412 136.37,134.97 C 137.702,136.354 139.374,137.047 141.223,137.335" id="path287"/>
	<path d="M 105.041,177.188 C 105.041,177.188 106.234,172.492 109.7,172.492 C 113.164,172.492 112.856,173.264 113.606,173.907 C 114.283,174.492 114.976,175.403 114.717,175.927 C 114.693,175.978 114.472,176.208 114.43,176.249 C 114.305,176.365 112.835,177.188 112.508,177.278 C 111.581,177.548 109.772,177.612 108.724,177.692 C 107.317,177.798 106.195,177.083 105.833,177.083 C 105.474,177.082 105.041,177.188 105.041,177.188 z " id="path289" style="fill:#e0af35;stroke:#000000;stroke-width:0.0738"/>
	<path d="M 106.381,177.009 C 106.381,177.009 105.766,176.321 106.522,175.456 C 106.637,175.328 107.101,175.274 107.339,174.785 C 107.772,173.896 109.338,173.537 110.132,173.614 C 111.326,173.719 113.925,175.814 113.925,175.814 C 113.925,175.814 114.472,176.759 113.886,176.358 C 113.416,176.036 113.094,175.567 112.369,175.706 C 111.648,175.85 110.385,176.791 109.517,176.54 C 108.651,176.287 107.856,175.527 107.493,175.633 C 107.137,175.742 106.381,177.009 106.381,177.009" id="path291"/>
	<path d="M 114.717,175.814 C 115.441,176.21 116.055,176.791 116.634,177.655 C 117.209,178.523 117.138,180.407 116.593,181.667 C 116.186,182.623 113.668,183.833 113.668,183.833 C 113.668,183.833 114.953,181.193 114.826,180.15 C 114.716,179.244 114.137,178.741 113.638,178.236 C 113.211,177.805 112.369,177.331 112.369,177.331 C 112.369,177.331 113.382,176.393 113.96,176.248 C 114.537,176.102 114.717,175.814 114.717,175.814 z " id="path293" style="fill:#e0af35;stroke:#000000;stroke-width:0.0738"/>
	<path d="M 113.749,176.394 L 114.179,176.248 C 114.179,176.248 115.555,177.312 115.947,178.493 C 116.114,178.993 116.381,179.824 115.801,181.197 C 115.457,182.017 114.828,182.676 114.828,182.676 C 114.828,182.676 115.371,181.63 115.733,180.259 C 115.898,179.623 115.694,178.663 114.864,177.691 C 114.443,177.194 113.749,176.394 113.749,176.394" id="path295"/>
	<path d="M 100.527,177.009 C 100.527,177.009 100.173,178.825 100.277,180.327 C 100.383,181.915 101.575,183.584 102.73,183.799 C 104.15,184.064 105.005,183.943 105.005,183.943 C 104.537,183.509 103.128,182.459 103.02,181.38 C 102.91,180.292 103.379,179.894 103.489,179.174 C 103.599,178.454 103.883,178.091 103.883,178.091 C 103.883,178.091 102.91,177.55 102.333,177.331 C 101.753,177.118 100.527,177.009 100.527,177.009 z " id="path297" style="fill:#e0af35;stroke:#000000;stroke-width:0.0738"/>
	<path d="M 102.008,177.264 C 102.008,177.264 101.466,178.378 101.466,179.284 C 101.466,180.871 101.575,181.413 101.899,182.063 C 102.175,182.624 103.599,183.399 103.599,183.399 C 103.599,183.399 102.513,182.567 102.332,181.265 C 102.151,179.97 102.406,178.378 102.729,177.619 L 102.008,177.264" id="path299"/>
	<path d="M 101.899,173.144 C 101.899,173.144 98.106,173.289 97.311,173.107 C 96.519,172.924 96.409,172.781 95.763,172.817 C 95.113,172.855 92.15,173.505 91.498,174.73 C 90.849,175.959 90.415,176.679 90.455,176.899 C 90.487,177.119 91.683,177.264 92.078,177.406 C 92.475,177.551 93.963,177.765 94.279,177.839 C 96.158,178.269 98.455,177.689 97.638,177.799 C 98.686,177.656 99.914,177.189 100.167,176.937 C 100.418,176.68 100.817,176.323 100.961,175.927 C 101.104,175.527 101.899,173.144 101.899,173.144 z M 107.388,173.321 C 107.388,173.321 105.801,169.785 104.639,168.451 C 104.639,168.451 102.91,170.725 102.406,171.698 C 101.898,172.675 100.383,175.2 100.417,175.567 C 100.456,175.925 100.129,176.649 100.238,176.791 C 100.345,176.936 100.526,176.973 101.393,177.118 C 102.26,177.264 102.692,177.516 103.054,177.798 C 103.413,178.091 104.208,178.164 104.461,178.13 C 104.716,178.091 105.04,177.188 105.04,177.188 C 105.04,177.188 105.62,175.528 106.019,174.954 C 106.412,174.369 107.388,173.321 107.388,173.321 z " id="path301" style="fill:#e0af35;stroke:#000000;stroke-width:0.0738"/>
	<path d="M 105.766,175.382 C 105.766,175.382 105.153,174.66 104.64,174.441 C 104.136,174.227 103.233,174.189 103.233,174.189 C 103.233,174.189 102.513,174.48 102.478,174.766 C 102.443,175.056 102.443,175.382 102.59,175.487 C 102.731,175.601 103.056,175.815 103.778,175.997 C 104.502,176.178 105.295,176.461 105.295,176.461 L 105.766,175.382" id="path303"/>
	<path d="M 90.743,177.082 C 90.743,177.082 90.354,178.902 90.924,180.942 C 91.282,182.241 92.169,183.398 93.126,183.798 C 94.077,184.194 96.737,183.867 96.737,183.867 C 96.737,183.867 94.967,183.583 93.991,181.808 C 93.511,180.931 93.595,179.639 93.668,179.026 C 93.739,178.412 93.991,177.837 93.991,177.837 C 93.991,177.837 92.507,177.532 92.22,177.477 C 91.86,177.405 90.743,177.082 90.743,177.082 z " id="path305" style="fill:#e0af35;stroke:#000000;stroke-width:0.0738"/>
	<path d="M 91.896,177.439 C 91.896,177.439 91.79,178.925 91.86,179.751 C 91.935,180.583 92.617,181.412 92.617,181.412 C 92.617,181.412 92.329,180.292 92.329,179.678 C 92.329,179.068 92.439,177.517 92.439,177.517 L 91.896,177.439 M 100.636,174.913 C 100.636,174.913 98.539,174.807 97.491,174.873 C 96.443,174.953 95.904,175.2 95.689,175.346 C 95.471,175.487 94.026,175.742 94.026,175.742 L 92.219,177.477 L 93.411,177.691 C 94.714,177.477 93.879,176.714 96.195,176.57 C 97.427,176.501 99.913,175.742 100.526,175.345 L 100.636,174.913" id="path307"/>
	<path d="M 142.013,172.491 C 142.013,172.491 141.283,172.536 139.95,172.697 C 138.622,172.854 136.131,172.747 135.481,173.396 C 134.831,174.05 132.917,174.913 132.266,176.248 C 131.62,177.586 131.509,178.346 131.758,178.559 C 132.014,178.775 132.087,178.705 132.813,178.812 C 133.533,178.926 134.375,179.231 135.338,179.393 C 137.074,179.678 137.894,178.668 138.549,178.346 C 139.416,177.908 141.222,177.406 141.838,177.294 C 142.45,177.188 142.198,175.527 142.198,175.527 L 142.013,172.491 z M 135.083,179.393 C 135.083,179.393 134.979,181.086 135.552,182.17 C 136.132,183.254 136.606,183.291 137.285,183.474 C 137.971,183.654 138.854,183.617 138.854,183.617 C 138.854,183.617 137.758,184.848 136.565,184.624 C 135.377,184.412 133.593,182.935 133.097,182.171 C 132.305,180.943 132.34,178.775 132.34,178.775 C 132.34,178.775 133.657,178.951 134.041,179.068 C 134.51,179.213 135.083,179.393 135.083,179.393 z " id="path309" style="fill:#e0af35;stroke:#000000;stroke-width:0.0738"/>
	<path d="M 141.152,174.117 C 141.152,174.261 140.431,174.913 140.431,174.913 L 138.155,175.601 L 136.456,176.359 L 134.869,177.44 C 134.869,177.44 134.003,178.346 133.931,178.494 C 133.86,178.633 133.785,179.028 133.785,179.028 L 134.978,179.355 C 134.978,179.355 134.961,179.013 135.316,178.717 C 135.605,178.479 135.92,178.216 136.13,178.055 C 136.604,177.692 137.431,177.264 137.866,177.151 C 138.297,177.041 139.453,176.394 139.633,176.249 C 139.812,176.103 140.243,176.288 140.719,175.96 C 141.189,175.633 141.152,174.117 141.152,174.117 M 133.786,179.027 C 133.786,179.027 133.678,180.69 133.894,181.303 C 134.111,181.914 134.762,182.532 134.762,182.532 C 134.762,182.532 134.323,181.264 134.293,180.654 C 134.268,180.256 134.432,179.213 134.432,179.213 L 133.786,179.027" id="path311"/>
	<path d="M 146.488,172.65 C 147.11,172.568 147.653,172.637 149.131,172.385 C 150.614,172.132 151.583,172.407 152.602,172.674 C 154.117,173.069 155.794,174.223 156.102,174.623 C 156.469,175.096 156.929,176.897 156.102,177.293 C 155.273,177.69 154.258,178.267 153.577,178.019 C 152.889,177.764 150.686,177.655 149.678,177.477 C 148.664,177.293 147.94,177.37 147.94,177.37 L 146.488,172.65 z M 156.318,177.188 C 156.318,177.188 156.646,178.13 156.678,179.317 C 156.717,180.509 156.39,181.413 156.064,182.171 C 155.669,183.096 153.718,183.869 153.718,183.869 C 153.718,183.869 154.515,182.64 154.803,181.737 C 155.084,180.833 154.766,179.607 154.656,179.137 C 154.55,178.664 154.116,178.055 154.116,178.055 C 154.116,178.055 154.55,177.986 154.913,177.838 C 155.272,177.691 156.318,177.188 156.318,177.188 z " id="path313" style="fill:#e0af35;stroke:#000000;stroke-width:0.0738"/>
	<path d="M 155.272,177.732 C 155.272,177.732 155.561,177.949 155.78,178.958 C 155.959,179.787 155.884,180.977 155.884,180.977 C 155.884,180.977 156.281,179.678 156.17,178.926 C 156.064,178.164 155.669,177.55 155.669,177.55 L 155.272,177.732" id="path315"/>
	<path d="M 143.319,170.327 C 142.38,170.345 141.334,170.974 140.72,171.698 C 140.108,172.423 140.212,173.719 140.463,174.554 C 140.72,175.381 141.44,176.79 142.165,177.585 C 142.885,178.377 144.15,178.925 145.341,178.851 C 146.529,178.774 148.301,178.663 148.335,177.732 C 148.372,176.791 148.012,175.6 147.76,174.696 C 147.506,173.793 147.1,172.816 146.497,172.056 C 145.524,170.831 145.051,170.293 143.319,170.327 z " id="path317" style="fill:#e0af35;stroke:#000000;stroke-width:0.0738"/>
	<path d="M 147.653,174.408 C 147.653,174.408 147.836,174.913 147.836,175.055 C 147.836,175.2 147.865,175.672 147.865,175.672 C 147.865,175.672 146.75,176.503 146.21,176.428 C 145.666,176.358 144.654,176.286 144.004,175.632 C 143.355,174.986 142.921,174.082 142.921,174.082 C 142.921,174.082 145.125,174.985 146.137,174.952 C 146.53,174.931 147.653,174.408 147.653,174.408" id="path319"/>
	<path d="M 144.111,178.559 C 144.111,178.559 144.906,179.5 144.94,180.26 C 144.98,181.017 144.871,181.847 144.547,182.393 C 144.22,182.926 143.464,184.231 143.464,184.231 C 143.464,184.231 144.22,184.338 145.051,183.834 C 145.882,183.33 146.893,182.495 147.225,181.381 C 147.519,180.326 147.359,178.494 147.359,178.494 C 147.359,178.494 146.099,178.882 145.051,178.882 C 144.654,178.881 144.111,178.559 144.111,178.559 z " id="path321" style="fill:#e0af35;stroke:#000000;stroke-width:0.0738"/>
	<path d="M 145.738,179.606 C 145.738,179.606 145.698,180.976 145.631,181.412 C 145.559,181.847 145.197,182.677 145.197,182.677 C 145.197,182.677 145.957,181.59 146.062,180.943 C 146.168,180.293 146.062,179.464 146.062,179.464 L 145.738,179.606 M 155.207,174.313 C 155.843,175.006 156.533,175.871 156.018,176.855 C 155.959,177.026 155.789,176.972 155.612,176.972 C 154.976,176.217 155.325,174.716 153.937,174.6 C 152.204,173.62 149.599,175.062 147.984,173.792 C 149.774,173.388 152.141,173.388 154.223,173.792 L 155.207,174.313" id="path323"/>
	<polygon points="77.239,187.084 77.239,190.331 78.968,190.331 78.968,194.882 69.146,194.882 69.146,190.331 71.458,190.331 71.458,187.084 69.146,187.084 69.146,184.048 90.743,184.048 90.743,187.084 88.432,187.084 88.432,190.331 90.743,190.331 90.743,194.882 80.921,194.882 80.921,190.331 82.653,190.331 82.653,187.084 77.239,187.084 " id="polygon325" style="fill:#b2b2b2;stroke:#000000;stroke-width:0.0738"/>
	<path d="M 89.947,184.048 L 89.947,186.576 L 87.634,186.576 L 87.634,190.331 M 89.947,190.331 L 89.947,194.379 L 80.921,194.379 M 82.653,187.084 L 82.653,186.576 L 76.44,186.576 L 76.44,190.331 M 78.176,190.331 L 78.176,194.379 L 69.146,194.379 M 71.458,187.084 L 71.458,186.576 L 69.22,186.576" id="path327" style="fill:none;stroke:#000000;stroke-width:0.0738"/>
	<path d="M 134.363,91.604 L 132.484,86.839 L 133.065,86.768 L 131.621,82.144 L 132.267,82.214 L 130.464,78.317 L 131.186,78.459 L 130.392,74.631 L 130.822,74.631 L 130.106,71.747 L 130.822,71.672 L 129.668,67.99 L 130.393,71.382 L 129.526,71.239 L 130.465,74.197 L 129.742,74.055 L 130.822,78.028 L 129.886,77.954 L 131.62,81.782 C 131.62,81.782 130.464,81.275 130.752,81.708 C 131.038,82.144 132.557,86.476 132.557,86.476 L 131.69,86.546 L 133.712,91.604 L 134.363,91.604" id="path329"/>
	<path d="M 35.765,177.06 C 35.975,177.457 36.178,177.868 36.416,178.241 C 36.661,178.617 36.948,178.967 37.221,179.319 L 32.946,182.078 C 32.118,182.612 30.87,183.378 30.169,184.02 C 29.52,184.63 29.133,185.054 28.956,185.936 C 28.813,186.705 28.988,187.408 29.418,188.069 C 30.319,189.469 31.317,189.889 32.965,189.571 C 33.803,189.417 35.518,188.31 36.256,187.831 L 40.816,184.887 C 40.914,185.105 41.035,185.329 41.16,185.52 C 41.285,185.713 41.437,185.918 41.594,186.091 L 36.24,189.554 C 34.492,190.614 32.937,191.642 30.843,190.775 C 29.732,190.338 28.851,189.438 28.211,188.445 C 27.034,186.629 26.334,184.284 27.928,182.464 C 28.411,181.917 29.022,181.418 29.625,181.029 L 35.765,177.06 M 42.962,187.954 L 44.109,189.308 C 43.623,193.041 43.257,196.837 42.686,200.626 L 49.094,195.227 C 49.215,195.43 49.365,195.63 49.514,195.81 C 49.665,195.985 49.841,196.168 50.017,196.325 L 40.619,204.243 L 39.646,203.063 C 40.079,199.986 40.515,197.086 40.842,194.165 L 41.147,191.359 L 34.519,196.942 C 34.38,196.75 34.248,196.542 34.097,196.36 C 33.947,196.182 33.759,196.016 33.596,195.845 L 42.962,187.954 M 51.779,197.967 C 52.071,198.313 52.347,198.663 52.667,198.982 C 52.984,199.292 53.342,199.573 53.683,199.864 L 45.024,208.574 C 44.732,208.238 44.452,207.886 44.132,207.57 C 43.816,207.255 43.461,206.975 43.117,206.686 L 51.779,197.967 M 51.141,214.114 C 50.826,213.793 50.523,213.46 50.181,213.169 C 49.845,212.875 49.472,212.622 49.11,212.355 L 56.303,204.018 C 55.342,203.187 54.404,202.544 53.619,202.031 C 53.807,201.866 54.013,201.711 54.187,201.509 C 54.346,201.321 54.474,201.093 54.609,200.88 L 61.592,206.902 C 61.401,207.073 61.198,207.228 61.034,207.418 C 60.857,207.62 60.736,207.843 60.597,208.059 C 59.88,207.274 59.159,206.487 58.336,205.773 L 51.141,214.114 M 68.017,211.531 C 67.842,211.713 67.637,211.898 67.489,212.101 C 67.342,212.306 67.232,212.557 67.113,212.778 C 66.31,212.022 65.412,211.195 63.909,210.146 L 61.647,213.265 L 63.157,214.359 C 63.807,214.831 64.442,215.207 65.032,215.518 C 64.858,215.704 64.659,215.887 64.511,216.091 C 64.365,216.297 64.248,216.541 64.131,216.768 C 63.648,216.307 63.093,215.818 62.443,215.345 L 60.931,214.251 L 58.262,217.933 C 59.748,218.993 60.789,219.637 61.759,220.162 C 61.582,220.342 61.383,220.529 61.233,220.733 C 61.088,220.935 60.971,221.186 60.854,221.406 L 55.329,217.404 L 62.491,207.527 L 68.017,211.531 M 74.578,215.522 C 77.821,217.564 77.852,220.66 76.386,223.202 C 74.362,226.708 70.693,227.363 67.512,225.528 L 63.174,223.018 L 69.275,212.456 L 74.578,215.522 z M 66.021,223.466 L 67.334,224.226 C 69.475,225.461 71.724,225.331 73.822,221.706 C 75.501,218.79 74.785,216.845 72.6,215.584 L 71.082,214.703 L 66.021,223.466 M 101.473,234.941 C 100.753,236.188 100.101,237.189 99.535,238.34 C 99.257,238.265 98.997,238.185 98.714,238.126 C 98.434,238.069 98.15,238.053 97.862,238.017 L 105.247,226.804 C 105.474,226.877 105.681,226.938 105.908,226.98 C 106.136,227.027 106.352,227.052 106.585,227.059 L 109.129,240.229 C 108.628,240.1 108.146,239.951 107.632,239.853 C 107.124,239.753 106.622,239.708 106.103,239.647 C 105.95,238.265 105.811,236.997 105.567,235.731 L 101.473,234.941 z M 105.368,234.575 L 104.598,230.176 L 102.152,233.958 L 105.368,234.575 M 116.184,240.89 C 115.743,240.808 115.304,240.717 114.856,240.672 C 114.413,240.63 113.957,240.644 113.51,240.641 L 114.53,229.667 C 113.262,229.551 112.129,229.569 111.188,229.613 C 111.246,229.367 111.327,229.118 111.348,228.848 C 111.373,228.604 111.341,228.347 111.329,228.095 L 120.513,228.947 C 120.455,229.195 120.377,229.436 120.357,229.689 C 120.331,229.96 120.36,230.212 120.374,230.468 C 119.329,230.241 118.292,230.02 117.203,229.916 L 116.184,240.89 M 173.634,226.768 C 173.834,228.192 173.933,229.386 174.192,230.642 C 173.926,230.756 173.67,230.841 173.416,230.974 C 173.157,231.104 172.918,231.259 172.676,231.409 L 171.638,218.02 C 171.862,217.944 172.058,217.864 172.27,217.757 C 172.474,217.653 172.659,217.541 172.851,217.404 L 182.935,226.252 C 182.456,226.456 181.984,226.636 181.52,226.866 C 181.059,227.105 180.63,227.382 180.188,227.644 C 179.218,226.647 178.334,225.731 177.357,224.879 L 173.634,226.768 z M 176.498,224.091 L 173.189,221.088 L 173.573,225.575 L 176.498,224.091 M 187.107,208.826 C 187.334,208.72 187.571,208.624 187.781,208.481 C 187.99,208.338 188.178,208.148 188.368,207.977 C 191.532,211.653 194.063,214.652 196.565,217.263 C 196.132,217.514 195.697,217.742 195.284,218.026 C 194.873,218.302 194.528,218.601 194.134,218.914 C 192.42,216.634 190.584,214.562 188.815,212.434 C 189.228,215.467 189.649,218.488 190.158,221.502 C 189.949,221.599 189.752,221.71 189.595,221.877 C 187.259,220.477 184.528,218.975 181.824,217.412 C 183.252,220.253 184.413,222.471 185.773,224.576 C 185.515,224.713 185.261,224.814 185.022,224.979 C 184.787,225.138 184.611,225.323 184.39,225.51 C 182.906,222.17 181.051,218.409 179.011,214.315 C 179.24,214.205 179.465,214.118 179.669,213.977 C 179.872,213.836 180.052,213.653 180.239,213.484 C 182.89,215.087 185.625,216.605 188.375,218.139 C 188.017,215.311 187.7,212.129 187.107,208.826 M 195.707,201.693 C 195.846,201.906 195.976,202.143 196.141,202.334 C 196.308,202.527 196.52,202.696 196.711,202.865 C 195.79,203.464 194.768,204.146 193.404,205.365 L 195.909,208.29 L 197.327,207.076 C 197.936,206.555 198.447,206.02 198.891,205.519 C 199.025,205.736 199.162,205.97 199.324,206.166 C 199.494,206.353 199.706,206.525 199.897,206.688 C 199.329,207.054 198.729,207.474 198.118,208.001 L 196.703,209.216 L 199.663,212.671 C 201.038,211.467 201.901,210.607 202.643,209.782 C 202.777,209.999 202.913,210.237 203.073,210.428 C 203.238,210.616 203.455,210.782 203.644,210.955 L 198.462,215.395 L 190.524,206.127 L 195.707,201.693 M 196.761,200.733 L 199.423,198.001 C 200.014,197.4 200.902,196.438 201.705,196.176 C 202.805,195.822 203.758,195.996 204.626,196.849 C 205.886,198.075 205.893,199.657 204.985,201.098 C 206.899,201.595 208.859,201.954 210.8,202.345 L 212.086,202.624 C 211.682,202.985 211.268,203.329 210.882,203.73 C 210.503,204.112 210.168,204.532 209.82,204.944 L 205.635,203.841 C 205.105,203.69 204.165,203.478 203.399,203.285 L 203.313,203.376 L 207.427,207.391 C 207.087,207.686 206.74,207.969 206.424,208.292 C 206.111,208.608 205.839,208.968 205.555,209.312 L 196.761,200.733 z M 202.767,202.838 C 204.206,201.617 204.219,200.326 202.899,199.036 C 202.717,198.863 202.51,198.683 202.19,198.475 C 200.931,197.641 200.093,198.702 199.329,199.482 L 202.767,202.838 M 204.004,193.035 C 204.324,192.719 204.65,192.41 204.942,192.068 C 205.228,191.721 205.472,191.344 205.73,190.979 L 215.143,198.876 C 214.828,199.199 214.502,199.505 214.209,199.849 C 213.922,200.19 213.676,200.571 213.418,200.936 L 204.004,193.035 M 221.254,187.16 L 222.285,188.374 C 222.107,189.574 221.55,190.733 220.854,191.71 C 218.63,194.837 215.02,195.825 212.033,193.695 C 208.222,190.986 208.354,187.124 210.619,183.946 C 211.308,182.983 212.386,181.993 213.454,181.477 C 213.855,181.96 214.29,182.404 214.717,182.881 L 214.573,183.083 C 213.401,183.06 212.18,183.604 211.503,184.553 C 209.782,186.973 211.404,189.602 213.549,191.127 C 216.045,192.904 218.669,192.924 220.27,190.679 C 220.914,189.772 221.195,188.387 221.035,187.29 L 221.254,187.16 M 222.037,182.578 C 222.999,183.646 223.748,184.582 224.663,185.481 C 224.508,185.719 224.345,185.937 224.207,186.189 C 224.061,186.438 223.958,186.704 223.833,186.966 L 215.503,176.434 C 215.645,176.25 215.764,176.07 215.879,175.867 C 215.989,175.661 216.083,175.465 216.163,175.245 L 229.469,176.964 C 229.187,177.402 228.893,177.813 228.639,178.266 C 228.385,178.717 228.187,179.181 227.962,179.658 C 226.61,179.365 225.36,179.1 224.074,178.936 L 222.037,182.578 z M 222.926,178.761 L 218.499,178.115 L 221.318,181.624 L 222.926,178.761 M 9.575,142.423 L 9.383,139.914 C 13.033,136.012 16.591,131.935 20.394,128.046 L 8.535,128.965 C 8.56,128.631 8.556,128.274 8.532,127.944 C 8.508,127.611 8.454,127.261 8.376,126.935 L 25.763,125.588 L 25.906,127.743 C 22.866,130.935 19.962,133.916 17.165,137.014 L 14.491,140 L 26.759,139.05 C 26.759,139.383 26.734,139.738 26.759,140.067 C 26.787,140.4 26.865,140.751 26.916,141.08 L 9.575,142.423 M 20.862,119.304 C 22.722,120.148 24.229,120.933 25.929,121.579 C 25.861,121.983 25.776,122.356 25.737,122.761 C 25.698,123.17 25.709,123.574 25.695,123.983 L 8.86,115.057 C 8.943,114.73 8.996,114.429 9.027,114.105 C 9.063,113.775 9.066,113.47 9.045,113.136 L 27.31,107.771 C 27.19,108.502 27.049,109.201 26.977,109.934 C 26.907,110.669 26.914,111.386 26.894,112.124 C 24.964,112.526 23.192,112.893 21.432,113.413 L 20.862,119.304 z M 19.832,113.842 L 13.719,115.526 L 19.385,118.472 L 19.832,113.842 M 29.516,99.398 C 29.309,100.005 29.083,100.601 28.93,101.215 C 28.774,101.834 28.692,102.466 28.589,103.097 L 13.423,99.305 C 12.984,101.058 12.77,102.654 12.621,103.978 C 12.29,103.842 11.963,103.683 11.592,103.589 C 11.246,103.506 10.884,103.491 10.526,103.455 L 13.7,90.758 C 14.033,90.894 14.361,91.053 14.705,91.141 C 15.075,91.231 15.44,91.245 15.796,91.281 C 15.258,92.69 14.727,94.103 14.345,95.608 L 29.516,99.398 M 15.174,86.828 C 15.445,86.245 15.736,85.681 15.955,85.084 C 16.174,84.487 16.325,83.862 16.494,83.248 L 32.856,89.289 C 32.586,89.871 32.295,90.439 32.073,91.036 C 31.856,91.633 31.707,92.251 31.536,92.869 L 15.174,86.828 M 38.172,78.622 C 35.496,83.565 30.786,85.319 25.71,82.574 C 21.26,80.163 19.417,74.972 22.433,69.405 C 25.885,63.034 31.391,63.588 34.872,65.442 C 39.241,67.777 41.138,73.14 38.172,78.622 z M 28.37,79.212 C 31.274,80.784 35.074,81.135 36.891,77.779 C 38.757,74.339 36.146,70.933 32.439,68.921 C 29.551,67.359 25.514,66.912 23.699,70.262 C 22.017,73.37 23.362,76.498 28.37,79.212 M 30.52,56.955 L 32.125,55.017 C 37.462,54.746 42.856,54.297 48.296,54.142 L 39.127,46.555 C 39.38,46.331 39.624,46.079 39.838,45.82 C 40.046,45.565 40.253,45.28 40.427,44.989 L 53.861,56.114 L 52.462,57.761 C 48.055,57.938 43.894,58.063 39.734,58.347 L 35.733,58.631 L 45.211,66.478 C 44.981,66.716 44.713,66.953 44.508,67.217 C 44.291,67.464 44.108,67.769 43.915,68.043 L 30.52,56.955 M 54.69,48.207 C 55.44,50.103 55.972,51.715 56.744,53.365 C 56.416,53.611 56.096,53.821 55.787,54.079 C 55.476,54.35 55.198,54.648 54.904,54.931 L 49.024,36.802 C 49.307,36.631 49.556,36.454 49.808,36.238 C 50.061,36.021 50.277,35.806 50.494,35.552 L 67.347,44.411 C 66.754,44.848 66.16,45.253 65.603,45.729 C 65.038,46.204 64.549,46.727 64.02,47.241 C 62.355,46.191 60.829,45.218 59.205,44.366 L 54.69,48.207 z M 57.751,43.562 L 52.187,40.519 L 54.207,46.577 L 57.751,43.562 M 71.014,39.955 C 72.885,38.775 74.381,37.618 75.747,36.545 C 75.893,36.871 76.031,37.234 76.224,37.539 C 76.412,37.837 76.68,38.122 76.912,38.391 L 68.771,43.54 L 59.52,28.912 C 60.081,28.614 60.66,28.34 61.2,27.996 C 61.737,27.663 62.232,27.257 62.745,26.87 L 71.014,39.955 M 87.334,18.38 C 86.371,17.311 85.153,16.86 83.806,17.392 C 81.937,18.124 81.582,19.381 82.114,20.73 C 83.371,23.926 90.33,20.505 92.463,25.928 C 93.654,28.956 91.903,32.156 88.236,33.597 C 86.936,34.109 85.42,34.35 84.028,34.073 C 83.922,32.972 83.79,31.874 83.531,30.799 L 83.981,30.625 C 84.978,32.12 86.638,32.585 88.271,31.943 C 89.734,31.367 90.713,30.028 90.068,28.396 C 88.584,24.607 82.069,28.755 79.831,23.051 C 78.762,20.332 79.746,17.345 83.343,15.932 C 85.047,15.261 86.812,15.307 87.525,15.596 C 87.542,16.469 87.61,17.343 87.693,18.238 L 87.334,18.38 M 101.512,10.923 C 101.552,11.277 101.573,11.668 101.661,12.01 C 101.75,12.358 101.918,12.705 102.055,13.039 C 100.505,13.227 98.782,13.465 96.278,14.157 L 97.646,19.449 L 100.202,18.791 C 101.31,18.508 102.294,18.145 103.174,17.791 C 103.213,18.146 103.234,18.536 103.325,18.885 C 103.411,19.225 103.579,19.577 103.721,19.907 C 102.777,20.02 101.743,20.18 100.637,20.468 L 98.076,21.125 L 99.687,27.379 C 102.19,26.707 103.832,26.157 105.283,25.567 C 105.322,25.926 105.343,26.313 105.432,26.661 C 105.522,27.006 105.687,27.356 105.827,27.684 L 96.449,30.105 L 92.136,13.339 L 101.512,10.923 M 121.552,22.861 L 121.235,25.097 C 119.809,26.042 118.047,26.546 116.352,26.731 C 110.945,27.327 106.486,24.444 105.914,19.267 C 105.185,12.671 109.404,9.162 114.913,8.554 C 116.58,8.373 118.65,8.579 120.203,9.225 C 120.071,10.112 120.015,10.982 119.908,11.889 L 119.557,11.931 C 118.47,10.666 116.749,9.885 115.108,10.067 C 110.911,10.529 109.662,14.736 110.069,18.449 C 110.545,22.767 113.006,25.565 116.894,25.139 C 118.464,24.962 120.189,23.958 121.209,22.746 L 121.552,22.861 M 125.575,8.302 C 126.207,8.394 126.837,8.511 127.471,8.55 C 128.108,8.593 128.745,8.554 129.384,8.544 L 128.923,15.752 C 128.83,17.148 128.652,19.224 128.793,20.56 C 128.94,21.817 129.094,22.616 129.954,23.563 C 130.714,24.373 131.658,24.767 132.773,24.834 C 135.135,24.99 136.456,24.209 137.485,22.058 C 138.012,20.968 138.2,18.077 138.279,16.834 L 138.77,9.146 C 139.095,9.217 139.448,9.267 139.784,9.285 C 140.108,9.306 140.467,9.302 140.8,9.274 L 140.223,18.307 C 139.964,21.198 139.817,23.836 137.064,25.494 C 135.631,26.397 133.856,26.638 132.184,26.536 C 129.112,26.341 125.851,25.161 125.121,21.802 C 124.91,20.794 124.852,19.672 124.917,18.656 L 125.575,8.302 M 146.969,10.344 L 152.24,11.59 C 153.403,11.867 155.217,12.244 156.126,13.039 C 157.359,14.112 157.843,15.403 157.445,17.086 C 156.869,19.508 154.95,20.673 152.528,20.623 C 153.329,23.321 154.328,25.956 155.267,28.605 L 155.865,30.37 C 155.135,30.146 154.412,29.897 153.645,29.717 C 152.903,29.535 152.14,29.436 151.39,29.311 L 149.676,23.421 C 149.459,22.668 149.038,21.364 148.715,20.297 L 148.542,20.254 L 146.661,28.196 C 146.057,27.994 145.455,27.778 144.838,27.632 C 144.215,27.483 143.588,27.412 142.952,27.316 L 146.969,10.344 z M 148.796,19.189 C 151.332,20.053 152.912,19.122 153.515,16.572 C 153.599,16.227 153.662,15.851 153.684,15.308 C 153.774,13.159 151.873,12.917 150.365,12.562 L 148.796,19.189 M 163.711,14.879 C 164.29,15.141 164.857,15.433 165.455,15.645 C 166.054,15.866 166.678,16.008 167.291,16.179 L 161.351,32.57 C 160.767,32.309 160.195,32.02 159.598,31.801 C 159.001,31.585 158.375,31.44 157.763,31.272 L 163.711,14.879 M 171.23,37.007 C 170.685,36.68 170.15,36.332 169.576,36.049 C 169.009,35.771 168.405,35.559 167.807,35.328 L 174.701,21.291 C 173.082,20.496 171.564,19.949 170.302,19.529 C 170.504,19.232 170.728,18.947 170.901,18.599 C 171.055,18.287 171.145,17.929 171.254,17.59 L 183.005,23.361 C 182.801,23.656 182.576,23.943 182.42,24.263 C 182.25,24.603 182.162,24.955 182.052,25.296 C 180.785,24.479 179.516,23.659 178.13,22.974 L 171.23,37.007 M 184.254,36.119 C 184.525,32.338 185.071,28.556 185.422,24.704 C 186.024,25.175 186.613,25.666 187.241,26.1 C 187.874,26.529 188.544,26.891 189.205,27.281 C 188.985,28.823 188.696,30.594 188.441,32.235 C 188.208,33.801 188.013,35.176 188.045,35.658 C 189.515,35.215 193.451,32.79 195.465,31.551 C 195.774,31.821 196.092,32.072 196.446,32.31 C 196.789,32.541 197.137,32.751 197.502,32.935 C 194.156,34.594 190.85,36.063 187.69,37.852 L 183.262,44.343 C 182.769,43.942 182.285,43.519 181.764,43.164 C 181.238,42.803 180.67,42.512 180.117,42.191 L 184.254,36.119 M 199.619,51.129 C 197.758,51.966 196.173,52.578 194.561,53.419 C 194.298,53.102 194.078,52.791 193.798,52.492 C 193.523,52.195 193.208,51.935 192.912,51.651 L 210.751,44.955 C 210.936,45.23 211.127,45.468 211.352,45.706 C 211.58,45.952 211.807,46.154 212.068,46.363 L 203.993,63.602 C 203.523,63.027 203.097,62.455 202.593,61.919 C 202.087,61.376 201.549,60.91 201.011,60.406 C 201.986,58.692 202.885,57.124 203.661,55.461 L 199.619,51.129 z M 204.394,53.977 L 207.181,48.285 L 201.22,50.572 L 204.394,53.977 M 214.282,77.759 C 212.506,76.186 210.845,74.568 209.627,72.692 C 206.704,68.194 206.362,62.715 211.372,59.463 C 216.684,56.018 221.91,58.143 225.106,63.066 C 226.297,64.899 227.016,66.852 227.138,69.05 C 226.264,69.192 225.381,69.461 224.6,69.848 L 224.407,69.551 C 225.201,67.64 224.949,65.624 223.856,63.941 C 221.543,60.378 217.191,60.72 213.607,63.045 C 209.894,65.456 208.899,68.766 211.008,72.008 C 211.698,73.075 212.489,73.651 213.128,73.966 L 218.107,70.725 C 218.413,71.285 218.692,71.86 219.043,72.393 C 219.388,72.926 219.799,73.422 220.186,73.927 L 214.282,77.759 M 234.642,82.663 C 234.294,82.76 233.915,82.848 233.59,82.991 C 233.259,83.139 232.946,83.364 232.642,83.558 C 232.199,82.053 231.673,80.398 230.569,78.051 L 225.58,80.277 L 226.661,82.693 C 227.129,83.735 227.647,84.652 228.147,85.454 C 227.804,85.555 227.422,85.64 227.095,85.789 C 226.773,85.931 226.453,86.158 226.155,86.35 C 225.883,85.442 225.551,84.443 225.079,83.399 L 224,80.987 L 218.108,83.621 C 219.191,85.98 220.012,87.507 220.834,88.838 C 220.49,88.942 220.106,89.027 219.78,89.169 C 219.459,89.318 219.144,89.541 218.838,89.732 L 214.881,80.888 L 230.683,73.822 L 234.642,82.663 M 236.553,87.453 L 237.205,89.883 C 234.346,94.395 231.599,99.06 228.591,103.591 L 240.072,100.484 C 240.112,100.816 240.179,101.171 240.265,101.484 C 240.351,101.803 240.471,102.144 240.605,102.449 L 223.77,107 L 223.23,104.91 C 225.626,101.205 227.928,97.74 230.095,94.174 L 232.174,90.745 L 220.292,93.954 C 220.232,93.63 220.19,93.271 220.101,92.953 C 220.012,92.634 219.873,92.302 219.763,91.99 L 236.553,87.453 M 228.376,123.681 L 226.145,123.32 C 225.233,121.868 224.765,120.103 224.616,118.403 C 224.133,112.987 227.114,108.584 232.305,108.123 C 238.914,107.541 242.329,111.83 242.823,117.348 C 242.972,119.017 242.716,121.083 242.039,122.624 C 241.157,122.472 240.282,122.396 239.378,122.272 L 239.346,121.921 C 240.629,120.862 241.447,119.15 241.302,117.506 C 240.932,113.305 236.751,111.966 233.031,112.298 C 228.701,112.68 225.852,115.075 226.198,118.972 C 226.338,120.545 227.312,122.296 228.501,123.341 L 228.376,123.681 M 232.423,130.741 C 235.82,129.052 239.353,127.596 242.852,125.936 C 242.751,126.697 242.623,127.454 242.579,128.211 C 242.525,128.974 242.552,129.738 242.552,130.502 C 241.113,131.1 239.441,131.75 237.899,132.364 C 236.432,132.96 235.151,133.487 234.751,133.768 C 235.878,134.812 239.971,136.96 242.064,138.065 C 241.987,138.469 241.935,138.87 241.909,139.304 C 241.879,139.711 241.879,140.117 241.9,140.526 C 238.774,138.49 235.83,136.387 232.683,134.574 L 224.843,134.07 C 224.935,133.439 225.054,132.806 225.1,132.17 C 225.133,131.538 225.102,130.899 225.092,130.264 L 232.423,130.741 M 128.214,229.144 C 128.18,229.393 128.122,229.665 128.122,229.915 C 128.124,230.167 128.182,230.436 128.215,230.684 C 127.121,230.544 125.909,230.404 124.076,230.438 L 124.08,234.291 L 125.943,234.288 C 126.747,234.288 127.481,234.221 128.14,234.125 C 128.11,234.378 128.057,234.643 128.057,234.896 C 128.06,235.148 128.108,235.415 128.147,235.667 C 127.485,235.577 126.749,235.507 125.945,235.508 L 124.078,235.512 L 124.083,240.059 C 125.908,240.043 127.129,239.953 128.221,239.807 C 128.184,240.055 128.132,240.326 128.132,240.578 C 128.133,240.826 128.185,241.099 128.22,241.345 L 121.399,241.355 L 121.387,229.155 L 128.214,229.144 M 93.587,236.77 C 93.17,236.602 92.758,236.427 92.329,236.294 C 91.903,236.164 91.454,236.087 91.016,235.994 L 94.198,225.442 C 92.979,225.078 91.865,224.869 90.934,224.725 C 91.039,224.496 91.168,224.269 91.244,224.008 C 91.317,223.774 91.336,223.515 91.375,223.267 L 100.206,225.928 C 100.101,226.158 99.975,226.38 99.905,226.623 C 99.825,226.886 99.804,227.137 99.767,227.392 C 98.788,226.961 97.816,226.538 96.768,226.219 L 93.587,236.77 M 150.8,239.111 C 146.889,239.959 143.754,238.233 142.88,234.215 C 142.118,230.693 144.066,227.286 148.473,226.33 C 153.516,225.236 155.774,228.467 156.389,231.207 C 157.157,234.654 155.139,238.17 150.8,239.111 z M 145.934,234.091 C 146.432,236.391 148.007,238.603 150.661,238.028 C 153.388,237.438 154.014,234.447 153.382,231.51 C 152.883,229.227 151.249,226.837 148.598,227.413 C 146.14,227.947 145.073,230.127 145.934,234.091 M 135.604,231.337 C 135.201,230.388 134.481,229.796 133.443,229.84 C 132.002,229.899 131.465,230.669 131.511,231.711 C 131.613,234.172 137.141,233.482 137.316,237.665 C 137.416,239.998 135.478,241.761 132.651,241.878 C 131.65,241.922 130.563,241.731 129.682,241.217 C 129.868,240.445 130.036,239.667 130.113,238.877 L 130.459,238.865 C 130.785,240.112 131.802,240.817 133.062,240.765 C 134.19,240.715 135.169,240.036 135.114,238.776 C 134.995,235.857 129.6,237.145 129.418,232.75 C 129.33,230.652 130.697,228.855 133.471,228.741 C 134.784,228.683 135.972,229.13 136.387,229.491 C 136.195,230.088 136.037,230.7 135.884,231.325 L 135.604,231.337 M 88.922,224.819 C 88.956,223.788 88.553,222.948 87.594,222.548 C 86.263,221.993 85.451,222.465 85.053,223.428 C 84.106,225.703 89.408,227.411 87.801,231.277 C 86.905,233.434 84.406,234.215 81.794,233.128 C 80.868,232.744 79.963,232.112 79.381,231.274 C 79.876,230.652 80.357,230.019 80.76,229.336 L 81.078,229.472 C 80.847,230.741 81.471,231.809 82.635,232.293 C 83.678,232.724 84.852,232.522 85.334,231.356 C 86.459,228.659 81.025,227.55 82.716,223.488 C 83.522,221.55 85.519,220.498 88.082,221.565 C 89.297,222.067 90.185,222.973 90.408,223.476 C 89.983,223.935 89.581,224.424 89.178,224.926 L 88.922,224.819 M 160.223,228.656 L 164.423,227.16 L 164.982,228.389 L 160.674,229.923 L 162.664,235.511 L 160.402,236.317 L 156.278,224.737 L 162.847,222.397 L 163.406,223.626 L 158.99,225.199 L 160.223,228.656 z " id="path331"/>
</g>
</svg>